<?xml version="1.0" standalone="no"?>
<!DOCTYPE svg PUBLIC "-//W3C//DTD SVG 1.1//EN" "http://www.w3.org/Graphics/SVG/1.1/DTD/svg11.dtd" >
<svg>
<metadata>
Created by FontForge 20110222 at Fri Mar 13 11:39:41 2015
 By www-data
</metadata>
<defs>
<font id="Icons" horiz-adv-x="1024" >
  <font-face 
    font-family="Icons"
    font-weight="400"
    font-stretch="normal"
    units-per-em="1024"
    panose-1="0 0 0 0 0 0 0 0 0 0"
    ascent="960"
    descent="-64"
    bbox="-5 -68 1053 967.95"
    underline-thickness="0"
    underline-position="0"
    unicode-range="U+0001-FFFD"
  />
<missing-glyph horiz-adv-x="0" 
 />
    <glyph glyph-name=".notdef" unicode="&#xfffd;" horiz-adv-x="0" 
 />
    <glyph glyph-name="glyph1" horiz-adv-x="0" 
d="M0 0v0v0v0z" />
    <glyph glyph-name="glyph1" horiz-adv-x="0" 
d="M0 0v0v0v0z" />
    <glyph glyph-name="uni0001" horiz-adv-x="0" 
d="M0 0v0v0v0z" />
    <glyph glyph-name="space" unicode=" " horiz-adv-x="512" 
d="M0 0v0v0v0z" />
    <glyph glyph-name="uniE600" unicode="&#xe600;" 
d="M740 43l-79 192l-80 -192h-168l-93 347l-93 -347h-227v120h135l185 690l184 -683l157 379l160 -386h199v-120h-280v0z" />
    <glyph glyph-name="uniE601" unicode="&#xe601;" 
d="M511 879l-510 -880h1020l-510 880v0zM563 106h-108v104h108v-104v0zM536 253h-54l-30 248v135h113v-135l-29 -248v0z" />
    <glyph glyph-name="uniE602" unicode="&#xe602;" 
d="M512 -64q-106 0 -199 40t-163 110q-69 69 -109.5 162.5t-40.5 199.5t40.5 199t109.5 163q70 69 163 109.5t199 40.5t199.5 -40.5t162.5 -109.5q70 -70 110 -163t40 -199t-40 -199.5t-110 -162.5q-69 -70 -162.5 -110t-199.5 -40v0zM512 832q-80 0 -149.5 -30t-122.5 -82
q-52 -53 -82 -122.5t-30 -149.5t30 -149.5t82 -122.5q53 -52 122.5 -82t149.5 -30t149.5 30t122.5 82q52 53 82 122.5t30 149.5t-30 149.5t-82 122.5q-53 52 -122.5 82t-149.5 30v0zM448 320h128v-128h-128v128v0zM448 704h128v-320h-128v320v0z" />
    <glyph glyph-name="uniE603" unicode="&#xe603;" 
d="M1018 256q5 -5 6 -10t-2 -10q-2 -6 -6 -9t-11 -3h-64q0 -19 -3.5 -38t-10.5 -37t-17.5 -35t-24.5 -33q-15 -16 -31.5 -31t-36.5 -27q-19 -13 -41 -24t-47 -21q-24 -9 -50 -16t-53 -12q-27 -4 -55.5 -6.5t-58.5 -2.5t-58.5 2.5t-55.5 6.5q-27 5 -53 12t-50 16
q-25 10 -47 21t-41 24q-20 12 -36.5 27t-31.5 31q-14 16 -24.5 33t-17.5 35t-10.5 37t-3.5 38h-64q-7 0 -11 3t-6 9q-3 5 -2 10t6 10l127 128q3 2 6.5 3.5t7.5 1.5q3 0 6.5 -1.5t6.5 -3.5l128 -128q4 -5 5 -10t-1 -10q-3 -6 -7 -9t-11 -3h-63q0 -12 4 -24t12 -23
q8 -12 20 -23.5t28 -22.5t34 -20t39 -16q20 -7 43 -12.5t48 -8.5v369h-110q-7 0 -13.5 3t-11.5 8q-6 6 -8.5 12.5t-2.5 13.5v73q0 8 2.5 14t8.5 12q5 5 11.5 8t13.5 3h110v93q-8 5 -15.5 10.5t-14.5 12.5q-7 6 -12.5 13.5t-10.5 16.5q-5 8 -9 16.5t-6 18.5q-3 9 -4 18.5
t-1 19.5q0 15 2.5 29t8.5 27q5 13 13 25t19 22q10 11 22 19t25 13q13 6 27 8.5t29 2.5t29 -2.5t27 -8.5q13 -5 25 -13t22 -19q11 -10 19 -22t14 -25q5 -13 7.5 -27t2.5 -29q0 -10 -1 -19.5t-4 -18.5q-2 -10 -6 -18.5t-9 -16.5q-5 -9 -10.5 -16.5t-12.5 -13.5
q-7 -7 -14.5 -12.5t-15.5 -10.5v-93h110q7 0 13.5 -3t12.5 -8q5 -6 7.5 -12t2.5 -14v-73q0 -7 -2.5 -13.5t-7.5 -12.5q-6 -5 -12.5 -8t-13.5 -3h-110v-369q25 3 48 8.5t43 12.5q21 7 39 16t34 20t28 22.5t20 23.5q8 11 12 23t4 24h-63q-7 0 -11 3t-7 9q-2 5 -1 10t5 10
l128 128q3 2 6.5 3.5t7.5 1.5q3 0 6 -1.5l7 -3.5l127 -128v0zM538 783q5 6 8 12.5t3 13.5t-3 13.5t-8 12.5q-6 5 -12 8t-14 3q-7 0 -13.5 -3t-12.5 -8q-5 -6 -7.5 -12.5t-2.5 -13.5t2.5 -13.5t7.5 -12.5q6 -5 12.5 -8t13.5 -3t13.5 3t12.5 8v0z" />
    <glyph glyph-name="uniE604" unicode="&#xe604;" 
d="M1024 617l-175 174l-337 -337l-337 337l-175 -174l512 -512l512 512v0z" />
    <glyph glyph-name="uniE605" unicode="&#xe605;" 
d="M681 -64l174 175l-337 337l337 337l-174 175l-512 -512l512 -512v0z" />
    <glyph glyph-name="uniE606" unicode="&#xe606;" 
d="M855 448l-512 512l-174 -175l337 -337l-337 -337l174 -175l512 512v0z" />
    <glyph glyph-name="uniE607" unicode="&#xe607;" 
d="M983 767q-20 19 -45 29.5t-51 11.5q-26 0 -51.5 -9t-44.5 -28l-290 -290l-268 267q-19 20 -44.5 29t-51.5 8q-26 0 -51.5 -10.5t-44.5 -30.5q-19 -19 -29.5 -44t-11.5 -52q-1 -26 8 -51t29 -45l464 -464l486 487q20 19 29 44t8 52q-1 26 -11.5 51t-29.5 45v0z" />
    <glyph glyph-name="uniE608" unicode="&#xe608;" 
d="M831 -23q19 20 29.5 45t11.5 51q0 26 -9 51.5t-28 44.5l-290 290l267 268q20 19 29 44.5t8 51.5q0 26 -10.5 51.5t-30.5 44.5q-19 19 -44 29.5t-52 11.5q-26 1 -51 -8t-45 -29l-464 -464l487 -486q19 -20 44 -29t52 -8q26 1 51 11.5t45 29.5v0z" />
    <glyph glyph-name="uniE609" unicode="&#xe609;" 
d="M193 919q-19 -19 -29.5 -44.5t-11.5 -51.5q0 -26 9 -51.5t28 -44.5l290 -290l-267 -268q-20 -19 -29 -44.5t-8 -51.5q0 -26 10.5 -51.5t30.5 -44.5q19 -19 44 -29.5t52 -11.5q26 -1 51 8t45 29l464 464l-487 486q-19 20 -44 29t-52 8q-26 -1 -51 -11.5t-45 -29.5v0z" />
    <glyph glyph-name="uniE60A" unicode="&#xe60a;" 
d="M41 129q20 -19 45 -29.5t51 -11.5q26 0 51.5 9t44.5 28l290 290l268 -267q19 -20 44.5 -29t51.5 -8q26 0 51.5 10.5t44.5 30.5q19 19 29.5 44t11.5 52q1 26 -8 51t-29 45l-464 464l-486 -487q-20 -19 -29 -44t-8 -52q1 -26 11.5 -51t29.5 -45v0z" />
    <glyph glyph-name="uniE60B" unicode="&#xe60b;" 
d="M512 791l-512 -512l175 -174l337 337l337 -337l175 174l-512 512v0z" />
    <glyph glyph-name="uniE60C" unicode="&#xe60c;" 
d="M682 790q0 -35 -13.5 -66t-36.5 -54t-54 -36.5t-66 -13.5t-66 13.5t-54 36.5t-36.5 54t-13.5 66t13.5 66t36.5 54t54 36.5t66 13.5t66 -13.5t54 -36.5t36.5 -54t13.5 -66v0zM928 448l-277 135q-7 7 -48.5 10t-90.5 3q-48 0 -90 -3t-49 -10l-277 -135q-8 -7 -11.5 -16.5
t-3.5 -18.5q0 -10 3.5 -19t11.5 -17q3 -3 7.5 -6t8.5 -5q5 -1 9.5 -2t9.5 -1t9.5 1t9.5 2q4 2 8.5 5t7.5 6l156 57q-1 -6 -0.5 -13t2.5 -15q1 -8 2.5 -17.5t2.5 -20.5l-37 -96l-101 -85q-9 -8 -14 -20.5t-6 -26.5t2 -27.5t9 -22.5l186 -126q4 -7 10 -12t13 -9q7 -3 14.5 -5
t14.5 -2q5 0 10 0.5t9 2.5q5 1 9.5 3t8.5 5q11 8 17.5 19t9.5 23q2 12 -0.5 24.5t-10.5 23.5l-154 80l71 24l254 -1l70 -23l-154 -80q-7 -11 -9.5 -23.5t-0.5 -24.5q2 -13 9 -23.5t18 -18.5q4 -3 8.5 -5t8.5 -3q5 -2 9.5 -2.5t9.5 -0.5q8 0 15.5 2t13.5 5q7 4 13 9t11 12
l185 126q7 9 9.5 22.5t1.5 27.5t-6 26.5t-14 20.5l-110 85l-32 96q1 10 2.5 18.5t3.5 16.5q1 7 1.5 13.5t0.5 11.5l150 -51q3 -3 7.5 -6t8.5 -5q5 -1 9.5 -2t9.5 -1t9.5 1t9.5 2q4 2 8.5 5t7.5 6q8 8 11.5 17t3.5 19q0 9 -3.5 18.5t-11.5 16.5v0zM662 269l-106 -75h-88
l-106 74l24 72h251l25 -71v0z" />
    <glyph glyph-name="uniE60D" unicode="&#xe60d;" 
d="M863 609v-59h-702v59h-161v-596h1024v596h-161v0zM406 159q-6 6 -15.5 9.5t-17.5 8.5q-5 3 -11.5 6t-12.5 5q-7 3 -13.5 6t-13.5 5q-3 0 -6 2t-9 2q-3 3 -7.5 9.5t-6.5 12.5h-5.5h-2.5q0 8 4 10.5t4 7.5q2 6 1 11.5t2 10.5q6 0 9 0.5t6 3.5t3.5 5.5t0.5 5.5t1 11.5
t-1 13.5q-3 3 -3.5 4.5t-0.5 6.5q0 6 0.5 16.5t3.5 13.5q0 4 -0.5 8t-0.5 8t-1 8t-2 9l-2.5 5t-4.5 5h-11l-8 8q-9 5 -18.5 6.5t-18.5 0.5q-8 -1 -15.5 -3.5t-13.5 -3.5q-8 -3 -14 -9.5t-9 -17.5q-4 -10 -4.5 -23.5t2.5 -30.5q0 -5 -2 -8.5t-2 -5.5q0 -6 1.5 -18.5
t9.5 -18.5l3.5 -1.5t3.5 1.5q0 -5 0.5 -12.5t3.5 -12.5q3 -6 5 -8t2 -7h-7q-3 -6 -6 -12.5t-9 -9.5q-2 0 -5.5 -2t-8.5 -2q-6 -2 -12 -5l-12 -6q-6 -2 -12 -5l-12 -6q-8 -2 -15.5 -5.5t-13.5 -8.5v281h304v-285h-4zM764 185h-274v58h274v-58v0zM925 331h-435v58h435v-58v0z
M805 744h-161v5.5v2.5q0 27 -10.5 51t-28.5 42t-42 28t-51 10t-51 -10t-42 -28t-28.5 -42t-10.5 -51v-5.5v-2.5h-161v-135h586v135v0zM512 693q-12 0 -23 4.5t-19 12.5q-7 8 -12 18.5t-5 23.5q0 12 5 23t12 20q8 9 19 14t23 5t23 -4.5t19 -12.5q7 -8 12 -18.5t5 -23.5
q0 -12 -5 -23.5t-12 -19.5q-8 -9 -19 -14t-23 -5v0z" />
    <glyph glyph-name="uniE60E" unicode="&#xe60e;" 
d="M1011 428q-2 2 -4.5 3.5t-4.5 3.5q4 4 7 8t5 9q2 6 3 12t1 12t-0.5 12t-2.5 12q-1 5 -2.5 10t-4.5 10q-2 5 -5 9l-6 8q-4 3 -8 6.5t-9 6.5t-11 4.5t-13 1.5q-2 0 -4.5 -0.5t-5.5 -0.5q-13 63 -41.5 114.5t-75.5 89.5q-46 37 -110.5 58.5t-149.5 24.5l33 -169l-54 -162
l51 -141l-123 150l27 153l-54 164q-24 -3 -46.5 -8t-42.5 -11q-21 -7 -40.5 -15t-37.5 -17l-57 33q-13 7 -24.5 8t-20.5 -3q-10 -5 -16.5 -14.5t-9.5 -23.5l-24 -154q-5 -9 -9 -18.5t-8 -19.5q-3 -9 -6.5 -19t-5.5 -21l-48 -15q-8 -4 -17.5 -7.5t-17.5 -9.5t-13 -14.5
t-5 -21.5v-135q0 -6 6 -10.5t16 -8.5q9 -3 20.5 -6t22.5 -6l47 -26q9 -19 21 -36t27 -31t32.5 -25.5t38.5 -20.5v-124v-2v-1h213v1v2v83q12 -1 24 -1.5t24 -0.5t24.5 -0.5t25.5 -0.5q10 0 20 0.5t20 0.5q9 0 18.5 1t18.5 1v-83v-2v-1h213v1v2v141q28 16 49.5 36.5t36.5 44.5
q15 25 24 52.5t13 59.5q4 -5 9 -8.5t10 -7.5l10 -6t11 -6q6 -2 12.5 -3.5t13.5 -1.5l3 64q-1 0 -4.5 1.5t-8.5 4.5v0zM238 456q-12 0 -23.5 4.5t-19.5 12.5q-8 9 -13 20t-5 23q0 13 5 24t13 19q8 9 19.5 13.5t23.5 4.5q13 0 24 -4.5t19 -13.5q8 -8 13 -19t5 -24
q0 -12 -5 -23t-13 -20q-8 -8 -19 -12.5t-24 -4.5v0z" />
    <glyph glyph-name="uniE60F" unicode="&#xe60f;" 
d="M860 736l-224 224h-490v-1024h732v782l-18 18v0zM207 -2v900h348q69 0 58.5 -108l-10.5 -108l106 13.5t108 -59.5v-380.5v-257.5h-610v0z" />
    <glyph glyph-name="uniE610" unicode="&#xe610;" 
d="M1019 687q-1 2 -18 26.5t-50 54.5q-17 15 -38 29.5t-47 25.5q-25 12 -55 19t-64 7t-63.5 -7t-54.5 -19q-25 -11 -46 -25.5t-37 -29.5q-6 -5 -10.5 -9.5l-8.5 -8.5q-4 -5 -8 -9.5t-7 -8.5q-4 4 -8 8.5t-8 9.5q-5 4 -9.5 8.5t-10.5 9.5q-16 15 -37.5 29.5t-46.5 25.5
q-26 12 -55.5 19t-63.5 7t-63.5 -7t-55.5 -19q-25 -11 -46 -25.5t-37 -29.5q-33 -30 -49 -55t-17 -26l-5 -18v-585l70 -18q1 2 15 22t39 43q14 12 29.5 22.5t33.5 18.5q19 8 40 13t46 5t47 -5.5t41 -13.5q20 -9 36 -20t30 -23l12 -12l11 -11q5 -6 9.5 -11t7.5 -10
q3 -4 5.5 -7.5t4.5 -6.5q1 -1 1.5 -2l0.5 -1q0 -1 0.5 -1h0.5v0v0v0q2 -4 5.5 -7.5t7.5 -6.5q4 -2 9 -3.5t10 -1.5t10 1.5t9 3.5q5 3 8 6.5t6 7.5v0v0.5v0.5v0q1 2 15 22t39 42q13 12 29 22.5t34 18.5t39.5 13t45.5 5q26 0 48 -5.5t41 -13.5q19 -9 35.5 -20t29.5 -23
q7 -6 13 -12l11 -11q5 -6 9 -11l8 -10q3 -4 5.5 -7.5t4.5 -6.5q0 -1 1 -2l1 -1v-1v0v0l70 18v585l-5 18v0zM273 265v0q-33 0 -62 -7t-54 -18t-45.5 -25t-36.5 -28v471q3 5 7.5 11l10.5 14t14 16t17 16q14 12 29.5 22.5t33.5 18.5q19 8 40 13t46 5t47 -5t41 -14q20 -9 36 -20
t30 -23l12 -12l11 -11q5 -6 9.5 -11t7.5 -9q2 -4 4 -6.5t4 -4.5v-473q-17 15 -38 29t-46 26q-26 11 -55.5 18t-62.5 7v0zM949 185q-16 15 -37 29t-47 26q-25 11 -54.5 18t-63.5 7q-33 0 -61.5 -7t-53.5 -18t-45.5 -25t-37.5 -28v471q3 5 7.5 11t11.5 14q6 7 14 15.5t17 16.5
q13 12 29 22.5t34 18.5t39.5 13t45.5 5q25 0 47.5 -5t41.5 -14q19 -8 35.5 -19.5t29.5 -23.5q7 -6 13 -12l11 -11q5 -6 9 -11t8 -9q2 -4 4 -6.5t3 -4.5v-473v0z" />
    <glyph glyph-name="uniE611" unicode="&#xe611;" 
d="M201 68h194v669h-194v-669v0zM227 660h139v-80h-139v80v0zM0 71h150v754h-150v-754v0zM26 741h84v-52h-84v52v0zM26 207h84v-52h-84v52v0zM450 71h150v724h-150v-724v0zM571 155h-85v52h85v-52v0zM483 624h84v-81h-84v81v0zM761 828l-143 -51l263 -706l139 52l-259 705v0
zM691 656l-18 48l80 29l19 -47l-81 -30v0zM881 159l-18 48l81 29l18 -48l-81 -29v0z" />
    <glyph glyph-name="uniE612" unicode="&#xe612;" 
d="M995 712q-38 79 -87.5 117t-102.5 48q-52 11 -102.5 0.5t-91.5 -26.5l-80 -174l101 22l-45 -124l80 10l-142 -382l47 307l-34.5 -5.5t-43.5 -4.5q-9 0 29 69l38 69l-114 -14l16 203q-36 19 -91.5 38.5t-116.5 16.5t-121 -40t-105 -130q-56 -117 -10 -210t135 -174
q90 -81 194 -156.5t164 -157.5q60 82 164 157.5t194 156.5q89 81 135 174t-10 210v0z" />
    <glyph glyph-name="uniE613" unicode="&#xe613;" 
d="M282 -19h381v935h-381v-935v0zM606 112h-101v102h101v-102v0zM417 264v102h102v-102h-102v0zM606 416h-101v102h101v-102v0zM417 569v102h102v-102h-102v0zM505 823h101v-102h-101v102v0zM329 823h102v-102h-102v102v0zM329 518h102v-102h-102v102v0zM329 214h102v-102
h-102v102v0zM0 -19h228v639h-228v-639v0zM63 570h102v-102h-102v102v0zM63 389h102v-102h-102v102v0zM63 215h102v-102h-102v102v0zM979 530v121h-55v119h-40v110h-34v-110h-39v-119h-56v-121h-45v-549h314v549h-45v0zM864 50h-102v102h102v-102v0zM864 362h-102v102h102
v-102v0zM983 208h-102v101h102v-101v0z" />
    <glyph glyph-name="uniE614" unicode="&#xe614;" 
d="M490 660q-5 0 -10 3t-8 8q-3 6 0 12.5t11 9.5q4 3 11.5 7t14.5 9q8 6 14 13t7 15q2 4 1 9t-3 10q-3 6 -8 12t-12 13q-12 11 -21 21t-14 20q-6 10 -8 20t-1 19q6 28 27 40t21 15q8 3 16 0.5t13 -7.5q3 -6 0.5 -12.5t-7.5 -9.5l-11.5 -8t-14.5 -21q-1 -7 1.5 -14t6.5 -13
q5 -7 10.5 -13t11.5 -12q11 -9 18.5 -18t11.5 -18q5 -9 6.5 -18t-0.5 -19q-8 -33 -39 -49.5t-34 -19.5q-3 0 -5.5 -2t-5.5 -2v0zM201 627q-5 0 -8.5 2.5t-5.5 5.5q-6 5 -5.5 12.5t8.5 12.5q6 3 15.5 10t6.5 16q0 4 -3.5 7.5t-9.5 6.5q-6 4 -14.5 7.5t-19.5 7.5
q-18 5 -32.5 12t-24.5 14q-10 8 -16.5 16t-7.5 16q-5 22 7 33.5t15 14.5q6 6 15 4t14 -8q6 -5 5.5 -12.5t-8.5 -12.5l-5 -4.5t-3 -10.5q0 -3 10 -12.5t49 -20.5q16 -5 29 -11.5t23 -12.5q9 -7 14.5 -14.5t6.5 -16.5q3 -24 -17 -41.5t-23 -20.5h-7.5h-7.5v0zM783 638
q-9 0 -14.5 4.5t-7.5 10.5q0 8 5 13t13 5t19.5 2t22.5 5q12 4 21.5 8.5t13.5 10.5q0 2 1 6.5t-5 15.5q-7 11 -10 20.5t-3 17.5q0 7 1.5 13.5t4.5 10.5q14 24 42.5 32t34.5 8q8 0 15 -3t7 -12q0 -8 -5.5 -13t-13.5 -5q-4 0 -10.5 -1.5t-12.5 -3.5q-7 -3 -12.5 -7t-8.5 -10
q-2 -5 0 -11.5t8 -17.5q7 -10 9 -18t2 -15t-2.5 -12.5t-5.5 -9.5q-8 -14 -24.5 -22.5t-34.5 -13.5q-17 -4 -31.5 -6t-18.5 -2v0v0zM1024 371q0 13 -5.5 25t-15.5 23q-10 12 -24 22t-32 18q-15 45 -54.5 77.5t-97.5 53.5q-57 21 -129.5 31t-153.5 10t-153 -10t-129 -31
t-97 -53.5t-56 -77.5q-18 -10 -32 -20t-24 -21t-15.5 -22.5t-5.5 -24.5q0 -11 4.5 -21.5t12.5 -21.5q9 -10 20 -19.5t25 -17.5v-5.5v-5.5v-4q6 -30 25 -80.5t47 -99.5q29 -49 66 -84.5t78 -35.5h464q42 0 79 35.5t66 84.5t48 99.5t23 80.5v4v5.5v5.5q15 8 27.5 17.5
t20.5 19.5q9 11 13.5 21.5t4.5 21.5v0zM724 437q10 11 20.5 18.5t20.5 11.5t18.5 3.5t13.5 -4.5q7 -5 9 -13.5t0 -19.5q-2 -10 -8 -21.5t-15 -22.5q-10 -10 -20.5 -17.5t-20.5 -11.5t-18.5 -4t-14.5 4t-8.5 12.5t-0.5 19.5q2 10 8.5 22t15.5 23v0zM512 517q8 0 15.5 -5
t12.5 -14q6 -9 9 -22t3 -28q0 -14 -3 -26.5t-9 -21.5q-5 -10 -12.5 -15.5t-15.5 -5.5t-15.5 5t-12.5 14q-6 9 -9 22t-3 28t3 28t9 22q5 9 12.5 14t15.5 5v0zM227 463q7 5 16 5.5t19 -4.5q10 -4 20 -12t18 -19q9 -9 15.5 -20.5t8.5 -21.5q2 -11 -0.5 -20t-8.5 -14
q-7 -6 -16.5 -6t-19.5 4t-19.5 12t-18.5 19t-15 22t-8 22q-2 10 0 18.5t9 14.5v0zM746 35h-468q-11 0 -31.5 13.5t-43.5 40.5q-22 26 -42 66t-29 92h15h17h18.5h18.5q12 -15 29 -27.5t37 -20.5q20 -9 42 -13.5t46 -4.5q9 0 19.5 1t20.5 2q9 2 18.5 5t18.5 7q6 -9 15 -15.5
t19 -11.5q11 -5 22.5 -7.5t23.5 -2.5t23 2.5t21 7.5t19 11.5t17 15.5q9 -3 18 -5.5t18 -4.5q10 -2 20 -3.5t21 -1.5q24 0 46 4.5t42 13.5q20 8 37 20.5t29 27.5h20.5h18.5h15.5h14.5q-9 -51 -29 -90.5t-42 -66.5q-23 -27 -43.5 -41t-31.5 -14v0z" />
    <glyph glyph-name="uniE615" unicode="&#xe615;" 
d="M987 741v-732q0 -7 -1 -14t-4 -14q-3 -6 -7 -12t-9 -11q-6 -6 -12 -10t-12 -7q-7 -2 -13.5 -3.5t-14.5 -1.5h-804q-8 0 -15 1.5t-13 3.5q-7 3 -12.5 7t-11.5 10q-5 5 -9 11t-7 12q-3 7 -4 14t-1 14v732q0 7 1 14t4 13q3 7 7 13t9 11q6 5 11.5 9.5t12.5 6.5q6 3 13 4.5
t15 1.5h73v55q0 9 1.5 18t4.5 17q4 8 9 15t12 14q6 7 13.5 12t15.5 8q8 4 17 5.5t18 1.5h37q9 0 18 -1.5t17 -5.5q8 -3 15.5 -8t13.5 -12q7 -7 12 -14t8 -15q4 -8 5.5 -17t1.5 -18v-55h220v55q0 9 1.5 18t4.5 17q4 8 9 15t12 14q6 7 13.5 12t15.5 8q8 4 17 5.5t18 1.5h37
q9 0 18 -1.5t17 -5.5q8 -3 15.5 -8t13.5 -12q7 -7 12 -14t8 -15q4 -8 5.5 -17t1.5 -18v-55h73q8 0 14.5 -1.5t13.5 -4.5q6 -2 12 -6.5t12 -9.5q5 -5 9 -11t7 -13q3 -6 4 -13t1 -14v0zM110 430h164v164h-164v-164v0zM110 210h164v183h-164v-183v0zM110 9h164v165h-164v-165v0
zM329 704v165q0 3 -1.5 6.5t-3.5 5.5q-3 3 -6.5 4.5t-6.5 1.5h-37q-4 0 -7 -1.5t-6 -4.5q-2 -2 -3.5 -5.5t-1.5 -6.5v-165q0 -4 1.5 -7t3.5 -6q3 -3 6 -4t7 -1h37q3 0 6.5 1t6.5 4q2 3 3.5 6t1.5 7v0zM311 430h183v164h-183v-164v0zM311 210h183v183h-183v-183v0zM311 9h183
v165h-183v-165v0zM530 430h183v164h-183v-164v0zM530 210h183v183h-183v-183v0zM530 9h183v165h-183v-165v0zM768 704v165q0 3 -1.5 6.5t-3.5 5.5q-3 3 -6.5 4.5t-6.5 1.5h-37q-4 0 -7 -1.5t-6 -4.5q-3 -2 -4 -5.5t-1 -6.5v-165q0 -4 1.5 -7t3.5 -6q3 -3 6 -4t7 -1h37
q3 0 6.5 1t6.5 4q2 3 3.5 6t1.5 7v0zM750 430h164v164h-164v-164v0zM750 210h164v183h-164v-183v0zM750 9h164v165h-164v-165v0z" />
    <glyph glyph-name="uniE616" unicode="&#xe616;" 
d="M16 613q71 -201 181 -327t219 -197t196.5 -97.5t113.5 -28.5q62 -6 113 9t88 48q38 32 61.5 80t31.5 107l-94.5 55.5t-157.5 68.5l-132 -132l-55 18t-172 135q-117 116 -135 171.5l-18 55.5l114 113q-7 44 -23.5 95t-42.5 92q-27 41 -64 63t-86 6q-49 -15 -82 -53.5
t-50 -86.5q-17 -49 -19 -100.5t13 -94.5v0z" />
    <glyph glyph-name="uniE617" unicode="&#xe617;" 
d="M1024 462q0 13 -5 25t-14 21t-21 14t-25 5h-31l-85 271l-1 2q-5 12 -11.5 22t-14.5 19t-16.5 16.5t-18.5 14.5q-10 6 -20.5 11.5t-21.5 9.5q-11 3 -23 5.5t-24 2.5h-369q-13 0 -25 -2.5t-23 -5.5q-11 -4 -21.5 -9.5t-20.5 -11.5q-10 -7 -18.5 -14.5t-16.5 -16.5
t-14.5 -19t-11.5 -22l-1 -2l-85 -271h-21q-13 0 -25 -5t-21 -14t-14 -21t-5 -25v-294h62v-84q0 -18 7 -34.5t19 -28.5t28.5 -19t34.5 -7q19 0 35 7t28 19t19 28.5t7 34.5v84h541v-84q0 -18 7 -34.5t19 -28.5t28 -19t35 -7q18 0 34.5 7t28.5 19t19 28.5t7 34.5v84h65v294v0z
M870 430q15 0 28.5 -5.5t23.5 -15.5t16 -23.5t6 -28.5q0 -16 -6 -29.5t-16 -23.5t-23.5 -15.5t-28.5 -5.5q-16 0 -29 5.5t-23 15.5t-16 23.5t-6 29.5q0 15 6 28.5t16 23.5t23 15.5t29 5.5v0zM266 763q3 6 9 12.5t14 12.5q9 6 18.5 9t15.5 3h369q5 0 14.5 -3t18.5 -9
q8 -6 14 -12.5t9 -12.5l74 -236h-630l74 236v0zM151 283q-15 0 -28.5 5.5t-23.5 15.5t-16 23.5t-6 29.5q0 15 6 28.5t16 23.5t23.5 15.5t28.5 5.5t28.5 -5.5t23.5 -15.5t16 -23.5t6 -28.5q0 -16 -6 -29.5t-16 -23.5t-23.5 -15.5t-28.5 -5.5v0z" />
    <glyph glyph-name="uniE618" unicode="&#xe618;" 
d="M857 755l-15 15l-190 190h-485v-865h348v-159l112 112l112 -112v159h118v660v0zM805 147h-66v232h-224v-232h-296v761h365q58 0 49 -91.5l-9 -91.5l89.5 11.5t91.5 -50.5v-321.5v-217.5v0z" />
    <glyph glyph-name="uniE619" unicode="&#xe619;" 
d="M999 891q-117 -72 -217.5 -150.5t-181.5 -153.5q-82 -74 -143 -139.5t-99 -110.5l-249 195l-110 -89l431 -438q27 71 83.5 172t134.5 213t174 226.5t203 213.5l-26 61v0z" />
    <glyph glyph-name="uniE61A" unicode="&#xe61a;" 
d="M60 614h-60v-123h60v123v0zM60 453h-60v-122h60v122v0zM60 290h-60v-123h60v123v0zM484 813h-123v-60h123v60v0zM644 761v52h-123v-60h113q2 2 4.5 4t5.5 4v0zM153 753v60q-32 0 -59.5 -12t-48.5 -33t-33 -49t-12 -59h60q0 19 7.5 36t19.5 29q13 13 30 20.5t36 7.5v0z
M320 813h-123v-60h123v60v0zM60 125h-60q0 -32 12 -60t33 -48q21 -21 48.5 -33t59.5 -12v60q-19 0 -36 7t-30 20q-12 13 -19.5 29.5t-7.5 36.5v0zM784 167h61v123h-61v-123v0zM784 331h61v122h-61v-122v0zM791 491h54v69q-7 -9 -14 -17.5t-13 -16.5q-7 -9 -13.5 -17.5
t-13.5 -17.5v0zM361 -30h123v60h-123v-60v0zM197 -30h123v60h-123v-60v0zM521 -30h123v60h-123v-60v0zM690 32v-60q32 0 59.5 12t48.5 33q21 20 33 48t12 60h-60q0 -20 -7.5 -36.5t-19.5 -29.5q-13 -13 -30 -20t-36 -7v0zM1000 926q-105 -65 -195.5 -135.5t-164.5 -137.5
q-73 -68 -128 -126.5t-89 -99.5l-225 176l-99 -80l388 -395q25 64 76 155t121 192t156.5 204t183.5 192l-24 55v0z" />
    <glyph glyph-name="uniE61B" unicode="&#xe61b;" 
d="M596 20l-263 40l3 -98l5.5 2t16.5 5q17 5 43.5 10t61.5 4q34 -1 74.5 -10.5t84.5 -32.5q23 44 51 74t56 50q28 19 52.5 29.5t41.5 14.5q11 3 16.5 3.5l5.5 0.5l-51 87l-198 -179v0zM830 883q-16 -4 -32.5 -9.5t-32.5 -12.5t-30.5 -15t-28.5 -18h-2h-2v0v0q8 9 16.5 17.5
t16.5 17.5t15 18t14 17q3 3 -1 14t-10 8q-22 -13 -41 -29t-36 -35t-32.5 -40t-29.5 -43l-0.5 -1.5t-2.5 -1.5q2 7 5 13l6 12q3 7 6.5 13t7.5 13q9 15 20.5 28.5t24.5 26.5q12 13 24.5 26.5t22.5 28.5q3 2 0 13t-11 9q-17 -7 -32.5 -19.5t-28.5 -27.5q-14 -15 -25.5 -31.5
t-19.5 -31.5q-6 -11 -10.5 -21.5t-8.5 -20.5t-6.5 -20.5t-4.5 -21.5q0 7 0.5 13t0.5 12q0 7 1 13t2 13q3 14 7.5 26.5t10.5 24.5t12.5 23.5t13.5 24.5q3 3 -1 13.5t-10 8.5q-31 -25 -44.5 -59.5t-13.5 -72.5t12 -76.5t31 -69.5q5 -19 10 -40t8 -42q3 -20 2.5 -39.5
t-9.5 -35.5l41 -8q4 17 5.5 28t0.5 21t-3.5 20.5t-6.5 25.5q-3 10 -5.5 19.5t-5.5 19.5t-5.5 20.5t-5.5 21.5v9v9q11 37 33.5 61t51.5 42q28 19 59.5 36t60.5 40q8 6 5 15.5t-9 6.5v0zM600 708v-4v-4v4v4v0v0v0zM647 496q6 0 10.5 -2l4.5 -2q-8 -29 -18.5 -52t-24.5 -42
t-31 -35.5t-39 -31.5q1 -8 -1 -16t-6 -15q-5 -7 -11.5 -12t-14.5 -8q-10 -3 -19.5 -2.5t-16.5 4.5q-8 3 -14 9t-9 14q-3 9 -1.5 17.5t5.5 15.5q5 8 12 13.5t17 8.5q6 3 11.5 3t10.5 -3q11 10 21.5 19.5t19.5 19.5q10 10 19 20.5t17 21.5q8 12 11 17t5 9t4 9.5t9 19.5
l-175 25l-421 -373l559 -84l421 380l-355 52v0z" />
    <glyph glyph-name="uniE61C" unicode="&#xe61c;" 
d="M1022 130q-7 18 -20 29.5t-29 19.5q-17 8 -35.5 14t-36.5 13q-19 8 -39 17t-41 17q-20 9 -40.5 17.5t-39.5 16.5q-6 2 -11.5 3.5t-10.5 2.5q-6 2 -11.5 3.5t-10.5 2.5q-7 5 -13 14t-12 19q-6 11 -11 21.5t-8 17.5l-14 2l-14 2q0 12 3.5 19t8.5 12q4 6 8.5 11.5t7.5 13.5
q2 8 2.5 17t1.5 18q0 8 1.5 16.5t5.5 16.5q3 5 7 7.5t9 5.5q4 2 8.5 4.5t7.5 7.5q3 3 5 8.5t4 10.5q2 6 3.5 11.5t2.5 10.5q1 9 2.5 19t1.5 20t-1.5 20t-6.5 19q-4 10 -7 14.5t-5 16.5q0 7 0.5 21t1.5 29q2 15 3 28.5t1 18.5q1 13 1 21.5t-1 15.5t-3 15t-5 21l-7.5 17
t-19.5 24l-33 6l-20 19q-31 18 -62 22.5t-59 0.5q-29 -3 -53.5 -11.5t-41.5 -15.5q-26 -9 -46 -26t-31 -44q-12 -28 -13.5 -67.5t9.5 -92.5q2 -9 0 -16t-5 -12q-2 -6 -4.5 -10.5t-2.5 -9.5q1 -11 2 -28t4 -34t8.5 -32t15.5 -21q2 -1 12 -3.5t10 -1.5q1 -11 2 -21.5t2 -20.5
q1 -11 2 -21.5t2 -20.5q3 -7 7 -12t8 -9q4 -5 7.5 -11t5.5 -16l-21 -5q-3 -7 -8 -17.5t-11 -21.5q-6 -10 -12 -19t-13 -14q-5 -1 -10.5 -2.5t-11.5 -3.5q-6 -1 -11.5 -2.5t-10.5 -3.5q-19 -8 -39.5 -16.5t-40.5 -17.5q-21 -8 -41 -17t-39 -17q-18 -7 -36.5 -13t-35.5 -14
q-16 -8 -29 -19.5t-20 -29.5q0 -13 -0.5 -32.5t-0.5 -41.5q-1 -22 -1 -44v-38h449l33 225l-27 58l63 30l54 -30l-30 -59l52 -224h430v38t-1 44q0 22 -0.5 41.5t-0.5 32.5v0z" />
    <glyph glyph-name="uniE61D" unicode="&#xe61d;" 
d="M573 560q-3 -2 -5.5 -5t-4.5 -7t-3 -8.5t-1 -9.5q0 -8 3 -14t8 -11q5 -4 13.5 -7.5t20.5 -6.5v79q-4 0 -8 -0.5t-8 -1.5t-7.5 -3t-7.5 -5v0zM676 397q-7 4 -17 8.5t-25 8.5v-93q4 0 9 1t10 3q4 1 8.5 3.5t8.5 5.5t7 6.5t6 7.5q2 4 3.5 9t1.5 11q0 10 -3 17t-9 12v0z
M619 842q-39 0 -76.5 -7t-71.5 -20t-65 -32t-58 -42q-23 -1 -45.5 -2.5t-43.5 -3.5t-41.5 -5t-38.5 -6q-22 -4 -41.5 -9t-36.5 -11q-17 -5 -31.5 -11t-26.5 -12q-15 -9 -24.5 -17t-12.5 -14q-2 -3 -3 -5t-1 -4q0 -1 1 -3.5t3 -5.5t5.5 -7t9.5 -9q6 -4 14 -9t17 -10
q10 -5 21.5 -9.5t24.5 -8.5t28 -8.5t31 -7.5q17 -4 34.5 -7t35.5 -5q-2 -9 -4 -17t-3 -17q-2 -9 -3 -17.5t-2 -17.5q-6 1 -12.5 2t-13.5 2l-12 2l-12 2q-24 5 -45.5 10.5t-41.5 11.5q-19 6 -37 13.5t-33 15.5q-1 1 -2.5 2t-3.5 2v-62q0 -2 1 -4t3 -5q1 -3 5 -7.5t10 -8.5
q6 -5 14 -10t17 -9q10 -5 21.5 -9.5t24.5 -9.5q12 -4 26 -7.5t29 -7.5q15 -3 31 -6t33 -5q2 -10 3.5 -19t3.5 -18q3 -9 5.5 -18t5.5 -18q-9 1 -18 2.5t-18 2.5t-17.5 2.5t-16.5 3.5q-24 4 -45.5 9.5t-41.5 11.5q-19 7 -37 14t-33 16l-4 2l-4 2v-53q0 -2 0.5 -4.5t2.5 -5.5
q3 -4 7 -8.5t10 -8.5q6 -5 14 -10t17 -9q10 -5 21.5 -9.5t24.5 -9.5q18 -6 38.5 -11t43.5 -9q23 -5 47.5 -8t51.5 -6q6 -9 12.5 -18t13.5 -17q7 -9 14.5 -17t15.5 -16q-22 1 -44.5 2.5t-43.5 3.5q-21 3 -41.5 5.5t-39.5 6.5q-23 5 -44.5 10t-41.5 12q-19 6 -36.5 13.5
t-33.5 15.5q-1 1 -3 2l-4 2v-60q0 -1 1 -3.5t3 -5.5t5.5 -7t9.5 -9t14 -9.5t17 -9.5q10 -5 21.5 -9.5t24.5 -8.5q25 -9 56.5 -16t66.5 -12t74 -7.5t80 -2.5h23t23 1q11 0 22 1l22 2q18 -8 36.5 -13.5t37.5 -8.5q19 -4 39 -6t41 -2q84 0 157.5 31t128.5 85q55 53 87 124.5
t32 153.5q0 81 -32 153t-87 125q-55 54 -128.5 85t-157.5 31v0zM619 111q-72 0 -135.5 26.5t-110.5 72.5q-47 45 -74 106.5t-27 131.5t27 131.5t74 106.5q47 46 110.5 72.5t135.5 26.5t135 -26.5t110 -72.5q47 -45 74.5 -106.5t27.5 -131.5t-27.5 -131.5t-74.5 -106.5
q-47 -46 -110.5 -72.5t-134.5 -26.5v0zM619 724q-59 0 -111 -21.5t-90 -59.5q-39 -37 -61 -87.5t-22 -107.5t22 -107.5t61 -87.5q38 -38 90 -59.5t111 -21.5t110.5 21.5t90.5 59.5q38 37 60.5 87.5t22.5 107.5t-22.5 107.5t-60.5 87.5q-39 38 -90.5 59.5t-110.5 21.5v0z
M753 338q-1 -4 -3 -8l-4 -8l-6 -8l-6 -8q-4 -3 -8 -7t-9 -7q-5 -4 -10.5 -7t-11.5 -6t-12.5 -5.5t-14.5 -4.5t-16.5 -3t-17.5 -2v-41h-30v41q-14 1 -26.5 3.5t-23.5 7.5q-11 4 -20 9.5t-17 13.5q-8 7 -14.5 16t-10.5 20q-5 11 -8 23.5t-4 27.5h71q0 -7 0.5 -13.5t2.5 -11.5
q2 -6 5 -10.5t7 -8.5t8 -7.5t9 -5.5q5 -3 10.5 -4.5t10.5 -2.5v101q-1 1 -2.5 1.5t-4.5 0.5q-2 1 -4 1.5t-5 1.5q-4 1 -9 2t-9 3q-5 1 -9.5 2.5t-8.5 3.5q-5 2 -9 3.5t-8 4.5q-4 2 -8 4.5t-8 4.5l-6 6t-6 7q-3 3 -5.5 7t-4.5 8t-4 8.5t-3 9.5t-1.5 10.5t-0.5 11.5t0.5 12
t2.5 12q1 5 3 10l4 10t5 9l6 8q4 4 7.5 8t7.5 7l8 6t9 5q5 3 10 5l10 4q5 1 10.5 2.5t10.5 2.5q6 1 11.5 2t10.5 1v38h30v-38q5 0 10.5 -1t11.5 -2q5 -2 10 -3t10 -3t9.5 -4t9.5 -5q4 -2 8 -5l8 -6t7 -6.5t6 -7.5q4 -3 6.5 -7.5t4.5 -9.5q3 -4 4.5 -9t3.5 -11q1 -5 2 -11
t1 -12h-71q0 5 -0.5 9.5t-2.5 8.5t-4 7.5t-5 7.5q-3 3 -6.5 5.5t-6.5 4.5q-4 2 -8 2.5t-8 0.5v-86q3 0 6 -1l6 -2q3 0 6.5 -1t6.5 -2q10 -2 18 -5t15 -6t13 -6t11 -7t9.5 -7.5t8.5 -7.5q3 -3 6.5 -7t5.5 -8q5 -8 7.5 -15.5t3.5 -15.5t1.5 -15t0.5 -13q0 -5 -1.5 -12
t-4.5 -15v0z" />
    <glyph glyph-name="uniE61E" unicode="&#xe61e;" 
d="M1009 199q-12 13 -28 22t-34 16t-37.5 13t-39.5 11q-23 7 -39.5 19t-28.5 27q-11 15 -17.5 32.5t-9.5 35.5q6 5 11.5 11t10.5 14q15 -5 32 -8t35 -2q17 1 34.5 7t34.5 18q-22 22 -27.5 47.5t-5.5 56.5q-1 31 -3.5 69.5t-18.5 86.5q-14 41 -44.5 62t-63.5 27
q-32 6 -59.5 -1t-33.5 -22q-29 11 -54 8.5t-46 -17.5q-20 -16 -34.5 -44.5t-23.5 -71.5q-9 -51 -8 -81t2 -50t-3.5 -36t-26.5 -38q16 -9 32.5 -13t31.5 -3q16 0 30 3.5t26 9.5q6 -8 11.5 -14t10.5 -12q-2 -18 -8.5 -35t-18.5 -32q-11 -16 -27.5 -27.5t-40.5 -18.5
q-18 -6 -36.5 -11.5t-36.5 -12.5q-18 -8 -35 -17t-31 -21q-19 -20 -13 -54l6 -34h633q0 -4 2.5 4.5t3.5 21.5q1 14 -1.5 29.5t-12.5 24.5v0zM362 210q12 13 27.5 22t32.5 16q18 7 36 13t36 11q2 0 7 2t7 2q7 3 14 5.5t13 6.5q6 3 11.5 6.5t9.5 7.5q-6 2 -11.5 5t-10.5 5
q-6 3 -11.5 5t-10.5 3q-4 1 -8 2.5t-8 2.5q-5 1 -9 1.5t-8 0.5q-4 3 -8.5 9.5t-9.5 13.5q-4 8 -8 15.5t-7 13.5q-5 0 -10 1.5t-8 1.5q0 8 2.5 13t5.5 9q3 3 6 7.5t4 10.5q2 6 2 12v12l2 12t3 12q3 5 9.5 8.5t9.5 6.5v1.5v1.5q-2 10 -2.5 20.5t-0.5 23.5q1 12 2.5 27.5
t3.5 34.5v0v0q0 6 1 16t1 20q1 11 1.5 20.5t0.5 13.5v15.5t-1 11.5t-2 10.5t-4 13.5l-5 12t-14 17l-21 4l-15 15q-21 15 -42 19t-41 2q-20 -3 -37.5 -8.5t-29.5 -9.5q-19 -7 -33.5 -19t-23.5 -32q-8 -19 -9 -47t7 -66q3 -14 -3.5 -21t-3.5 -12q0 -9 0.5 -21.5t1.5 -24.5
q2 -13 6 -23.5t10 -14.5q3 0 9 -2l6 -2q1 -7 2 -14.5t2 -14.5q0 -8 1 -15.5t2 -14.5q2 -5 5 -8.5t6 -6.5t5.5 -7t2.5 -11l-15 -3q-3 -6 -6.5 -13.5t-7.5 -15.5q-4 -7 -8.5 -13.5t-10.5 -8.5q-4 -2 -8 -3l-8 -2t-8.5 -2t-8.5 -1q-14 -5 -25 -11t-23 -12q-11 -7 -23 -13
t-28 -11q-12 -6 -25 -10t-25 -9q-11 -6 -20.5 -14t-13.5 -22q0 -10 -0.5 -24t-0.5 -30v-31.5t1 -27.5h348q0 5 -1 17t0 26q1 15 5 29.5t14 25.5v0z" />
    <glyph glyph-name="uniE61F" unicode="&#xe61f;" 
d="M956 628q6 -4 13 -2t11 9l13 23q4 7 2 14.5t-8 10.5l-272 163l-175 107q-5 4 -11 5.5t-13 1.5q-6 0 -12 -1.5t-12 -5.5l-455 -272q-6 -4 -8 -11.5t2 -13.5l13 -24q4 -7 11 -8.5t13 1.5l8 5l24 14q0 -1 -0.5 -2.5t-0.5 -3.5v-48q0 -7 5 -12.5t13 -5.5h6v-15q0 -9 5 -15.5
t13 -8.5l-10 -348q-5 -4 -7.5 -9t-2.5 -12v-26h-34q-5 0 -9.5 -2t-7.5 -6q-4 -4 -6 -8.5t-2 -10.5v-61q-5 0 -10 -2t-8 -6q-4 -3 -6 -8t-2 -10v-62q0 -5 2 -10t6 -8q3 -4 8 -6t10 -2h904q5 0 9.5 2t8.5 6q3 3 5 8t2 10v62q0 5 -2 10t-5 8q-4 4 -8.5 6t-9.5 2v61q0 6 -2 10.5
t-5 8.5q-4 4 -8.5 6t-10.5 2h-32v26q0 7 -3 12.5t-8 8.5l-10 348q8 3 13 9.5t5 14.5v15h6q8 0 13 5.5t5 12.5v48q0 2 -0.5 3.5t-1.5 2.5l25 -14l4 -2v0zM800 533l-10 -348q-5 -3 -8 -8.5t-3 -12.5v-26h-91v26q0 7 -3 12.5t-8 8.5l-10 348q8 3 13.5 9.5t5.5 14.5v15h96v-15
q0 -9 5 -15.5t13 -8.5v0zM238 185l-10 348q8 3 13 9.5t5 14.5v15h97v-15q0 -8 5 -14.5t13 -9.5l-11 -348q-4 -3 -7 -8.5t-3 -12.5v-26h-92v26q0 7 -2.5 12.5t-7.5 8.5v0zM458 185l-11 348q8 2 13.5 8.5t5.5 15.5v15h96v-15q0 -8 5.5 -14.5t12.5 -9.5l-10 -348q-4 -3 -7 -8.5
t-3 -12.5v-26h-92v26q0 7 -3 12.5t-7 8.5v0z" />
    <glyph glyph-name="uniE620" unicode="&#xe620;" 
d="M1002 129q6 -6 10 -12t7 -13q2 -7 3.5 -14t1.5 -15t-1.5 -15t-3.5 -14q-3 -7 -7 -13t-10 -11l-63 -64q-6 -5 -12.5 -9.5t-12.5 -6.5q-7 -3 -14 -4.5t-15 -1.5t-15 1.5t-14 4.5q-7 2 -13 6.5t-11 9.5l-215 215q-6 6 -10 12t-7 12q-3 7 -4 14t-1 15t1.5 15.5t4.5 14.5t8 14
t11 13l-152 152l-74 -75q-4 -4 -9 -6t-11 -2t-11 2t-9 6l2 -2l5 -5l5 -5t2 -3l2.5 -2.5l3.5 -3.5q3 -3 4.5 -5t1.5 -3l2 -4l2 -4q1 -3 2 -5.5t1 -4.5q1 -3 1 -5.5v-5.5q0 -6 -1 -11t-3 -10t-5 -10t-8 -9q0 -1 -2.5 -3.5t-6.5 -7.5l-7 -7l-5 -5q-1 -2 -4 -4t-7 -6
q-3 -3 -6.5 -5t-6.5 -4q-2 -1 -5.5 -2.5t-7.5 -2.5q-3 -1 -7 -2t-8 -1q-6 0 -11.5 1t-10.5 3t-9.5 5.5t-8.5 7.5l-241 241q-5 4 -8 8.5t-5 9.5t-3 10.5t-1 11.5q0 4 0.5 8t2.5 8q1 4 2.5 7t2.5 6q1 2 3.5 5.5t5.5 7.5t5.5 6.5l4.5 4.5q2 1 5 4l7 7q5 4 7.5 6.5l3.5 3.5
q4 4 9 7t10 5t10 3t11 1h5.5t5.5 -1q2 0 4.5 -1t4.5 -2q3 -1 5 -2t3 -1q2 -1 4 -2.5t4 -3.5l4.5 -4.5t2.5 -1.5l3 -3l5 -5t4.5 -5t2.5 -2q-4 4 -6 9t-2 11t2 11t6 9l206 206q4 4 9 6t11 2t11 -2t9 -6l-2.5 2.5l-4.5 4.5q-4 3 -5.5 5t-2.5 3q0 1 -1.5 2.5t-4.5 3.5
q-2 3 -3.5 5t-2.5 3q0 2 -1 4t-2 5q-1 2 -2 4.5t-1 4.5q-1 3 -1 5.5v5.5q0 5 1 10.5t3 10.5t5 10t7 9l3.5 3.5t6.5 7.5l7 7t4 5l4.5 4.5t6.5 5.5t7.5 5.5t5.5 3.5q3 1 6 2.5t7 2.5q4 2 8 2.5t8 0.5q5 0 10.5 -1t10.5 -3t10 -5.5t9 -7.5l241 -241q4 -4 7 -8.5t5 -9.5
q3 -5 4 -10.5t1 -11.5q0 -4 -1 -8l-2 -8t-2.5 -7t-2.5 -6q-2 -2 -4 -5.5t-5 -7.5l-6.5 -6.5t-3.5 -4.5q-2 -1 -5 -4l-7 -7q-5 -4 -7.5 -6.5l-3.5 -3.5q-4 -4 -9 -7t-10 -5t-10.5 -3t-10.5 -1h-5.5h-5.5q-2 1 -4.5 2t-5.5 2l-4 2l-4 2q-1 0 -3 1.5t-5 3.5q-2 3 -3.5 4.5
t-2.5 1.5l-3 3l-5 5l-5 5l-2 2q4 -4 6 -9t2 -11t-2 -11t-6 -9l-75 -75l152 -151q6 6 12.5 11t14.5 8q7 3 14.5 4.5t14.5 1.5q8 0 15.5 -1t13.5 -4q7 -3 13.5 -7t11.5 -9l215 -215v0z" />
    <glyph glyph-name="uniE621" unicode="&#xe621;" 
d="M1024 754h-1024v-612h1024v612v0zM954 212h-884v228h884v-228v0zM954 627h-884v57h884v-57v0zM293 367h-146v-39h146v39v0zM512 367h-191v-39h191v39v0zM540 307h-393v-39h393v39v0z" />
    <glyph glyph-name="uniE622" unicode="&#xe622;" 
d="M0 125q0 -14 5.5 -27t14.5 -22q10 -10 22.5 -15t27.5 -5h760q14 0 27 5t22 15q10 9 15.5 22t5.5 27v84h-900v-84v0zM850 840h-1v0v0h-798v-248q0 -61 13 -110t36 -87q24 -39 58 -67t77 -47h437q32 15 59 35t48 46t36 58.5t24 71.5h5h6q36 0 67.5 13.5t55.5 37.5
q24 23 37.5 55t13.5 68t-13.5 68t-37.5 55q-24 24 -55.5 37.5t-67.5 13.5v0zM850 564h-1.5h-0.5q0 7 0.5 14t0.5 14v177v0h1q21 0 39.5 -8.5t32.5 -22.5q14 -13 22 -32t8 -40t-8 -40t-22 -32q-14 -14 -32.5 -22t-39.5 -8v0z" />
    <glyph glyph-name="uniE623" unicode="&#xe623;" 
d="M512 960q-106 0 -199.5 -40t-162.5 -110q-70 -69 -110 -162.5t-40 -199.5t40 -199.5t110 -162.5q69 -70 162.5 -110t199.5 -40t199.5 40t162.5 110q70 69 110 162.5t40 199.5t-40 199.5t-110 162.5q-69 70 -162.5 110t-199.5 40v0zM487 863h66v-128h-66v128v0zM293 624
l-91 90l46 46l91 -90l-46 -46v0zM325 816l59 27l54 -115l-59 -28l-54 116v0zM521 75q-21 0 -40 8t-32 22q-14 14 -22 32.5t-8 39.5q0 17 5 32t13 28q9 12 21.5 21.5t27.5 14.5v293h65v-291q16 -4 29 -13.5t23 -22.5t15 -28.5t5 -33.5q0 -21 -8 -39.5t-22 -32.5
q-13 -14 -32 -22t-40 -8v0zM597 728l54 115l59 -27l-54 -116l-59 28v0zM740 624l-46 46l91 90l46 -46l-91 -90v0z" />
    <glyph glyph-name="uniE624" unicode="&#xe624;" 
d="M1024 755l-205 205l-307 -307l-307 307l-205 -205l307 -307l-307 -307l205 -205l307 307l307 -307l205 205l-307 307z" />
    <glyph glyph-name="uniE625" unicode="&#xe625;" 
d="M506 960l-173 -210h113v-812h120v812h113l-173 210v0zM1015 463l-209 173v-113h-179v-585h121v465h58v-113l209 173v0zM208 415l-210 -173l210 -173v113h62v-245h120v366h-182v112v0z" />
    <glyph glyph-name="uniE626" unicode="&#xe626;" 
d="M483 894l-19 18h-464v-976h699v746l-19 18l-197 194v0zM640 -5h-581v859h332q66 0 55 -102.5l-11 -102.5l101 12.5t104 -56.5v-610v0zM1006 770l-190 190h-297l59 -59h168v0v0v0v-3q10 0 17.5 -4t12.5 -10q6 -7 9.5 -15.5t4.5 -18.5q8 -41 2 -86l-6 -45v0v0v-2v-2
l81.5 10.5t97.5 -36.5v-0.5v-2.5v-0.5v-3.5v-4v-3v-534h-204v-59h263v670l-18 18v0z" />
    <glyph glyph-name="uniE627" unicode="&#xe627;" 
d="M656 215q-9 0 -18.5 4t-18.5 11q-8 7 -14 19t-8 28q-17 -17 -35.5 -29.5t-38.5 -20.5t-40 -12t-39 -4q-38 0 -71.5 15t-58.5 42t-39 64t-14 81q0 51 20 100t56 88q35 39 83 63t103 24q23 0 42.5 -5.5t34.5 -15.5q15 -9 26 -21.5t18 -26.5q3 16 9 29t15 21q8 9 19 14t23 5
q10 0 20 -4t17 -11q7 -6 11.5 -15t4.5 -19v-6.5t-1 -8.5q0 -2 -20.5 -151.5t-21.5 -148.5q35 2 67.5 16t58.5 39q25 26 40.5 62t15.5 81q0 74 -32.5 135.5t-84.5 105.5q-53 43 -119.5 67.5t-134.5 24.5q-84 0 -158.5 -32.5t-129.5 -87.5t-87 -129.5t-32 -158.5t32 -157.5
t87 -128.5t129.5 -87t158.5 -32q36 0 69.5 6.5t63.5 18.5q31 12 59 28.5t54 35.5q11 8 23.5 12t19.5 4q9 0 19 -2.5t17 -8.5q8 -6 13 -16t5 -25q0 -5 -1.5 -11.5t-3.5 -12.5q-3 -6 -7 -12t-10 -10q-32 -28 -69 -49t-78 -36q-40 -14 -84 -21t-90 -7q-106 0 -199.5 40.5
t-162.5 109.5q-70 70 -110.5 163t-40.5 198q0 106 40.5 199.5t110.5 162.5q69 70 162.5 110.5t199.5 40.5q98 0 184.5 -32.5t150.5 -91.5q65 -58 102 -138t37 -176q0 -69 -26 -126t-69 -97t-98.5 -62t-114.5 -22h-41v0zM372 422q0 -27 6 -47.5t20 -34.5q13 -13 33 -20.5
t47 -7.5q31 0 59 14t49 36q22 23 34.5 52.5t12.5 61.5q0 26 -8 46.5t-23 35.5q-14 14 -33.5 21.5t-43.5 7.5q-30 0 -58 -13.5t-49 -36.5q-21 -22 -33.5 -52t-12.5 -63v0z" />
    <glyph glyph-name="uniE628" unicode="&#xe628;" 
d="M891 330q-1 9 -3.5 18t-6.5 18t-9 18t-12 18q-6 9 -14.5 18t-18.5 18q-10 8 -22 16.5t-26 17.5q-14 8 -30.5 15.5t-36.5 14.5t-42.5 13.5t-47.5 11.5q-5 2 -9.5 3t-9.5 2t-9 1.5t-9 1.5q-4 1 -8.5 2t-8.5 2t-8 1.5t-9 1.5v200q12 0 23 -2t21 -6t19 -10t17 -14
q9 -8 15 -16.5t11 -18.5q4 -10 6.5 -20t2.5 -22h196q-1 15 -3.5 28.5t-6.5 26.5t-9 24.5t-12 22.5q-6 11 -13.5 20.5t-16.5 18.5q-8 9 -17.5 17t-19.5 15q-10 8 -21.5 14t-23.5 12t-24.5 10.5t-26.5 8.5q-14 5 -28 8l-28 6q-15 3 -30 5t-31 3v87h-81v-87q-16 0 -31 -2
l-30 -4q-15 -3 -29.5 -6t-29.5 -7q-14 -4 -28 -9t-26 -11q-13 -6 -25 -12.5t-23 -14.5q-11 -7 -21 -15.5t-19 -17.5t-16.5 -19t-14.5 -21t-12 -23t-8 -25q-4 -12 -5.5 -25.5t-1.5 -28.5q0 -14 1.5 -27t4.5 -24q3 -12 7 -22.5t10 -20.5q6 -9 13 -18t15 -16q8 -8 16.5 -15.5
t18.5 -13.5t20.5 -12t21.5 -11t23 -9.5t24 -7.5q13 -4 25.5 -7.5t24.5 -7.5q13 -3 25.5 -6t25.5 -6q7 -1 13.5 -2.5t12.5 -2.5q5 -1 10 -2.5t8 -2.5v-236q-16 3 -30.5 7t-27.5 10t-25 13.5t-23 17.5q-11 9 -19 20t-13 24q-5 12 -7.5 26.5t-1.5 30.5h-195q3 -33 11 -62.5
t21 -54.5t30 -46t39 -39q21 -17 47 -30.5t56 -22.5q31 -10 65 -16t73 -8v-96h81v96q26 1 49.5 4t45.5 7q21 4 40 9.5t35 12.5q17 7 31.5 15t28.5 16q13 8 24.5 16.5t21.5 17.5t18 18t15 18t12 18.5t9 18.5q4 10 7 18.5t4 16.5q2 8 3 15t1 13v14.5t-1 15.5t-1.5 16.5
t-2.5 17.5v0zM470 558q-17 3 -31 6.5t-26 7.5t-21.5 8.5t-16.5 9.5q-7 6 -12.5 12t-9.5 13q-3 7 -5 15.5t-2 17.5q0 6 0.5 11.5t2.5 10.5q1 5 3 10t4 9l6 8l6 8q4 4 8 7t9 6q4 3 9 6t10 5t10 3.5t11 3.5q5 1 10.5 2t11.5 2t11.5 1.5t11.5 0.5v-184v0zM687 226q-4 -5 -8 -9.5
t-8 -8.5t-9 -8t-11 -7q-5 -4 -10.5 -7t-11.5 -5q-6 -3 -12.5 -5t-13.5 -4t-13.5 -3.5t-12.5 -2.5q-7 -1 -13 -2t-13 -2v217q21 -5 38 -9.5t32 -9.5q14 -5 25.5 -10.5t20.5 -10.5q8 -6 14.5 -12.5t10.5 -15.5q4 -8 6 -17.5t2 -20.5q0 -7 -0.5 -13.5t-2.5 -11.5
q-2 -6 -4.5 -11.5t-5.5 -10.5v0z" />
    <glyph glyph-name="uniE629" unicode="&#xe629;" 
d="M581 388q-3 3 -8.5 6t-11.5 5q-7 3 -14.5 5.5l-16.5 5.5v-119q5 0 11 1.5t12 3.5t11.5 5t10.5 6q4 4 8 8.5t7 10.5q4 5 5.5 11.5t1.5 14.5q0 6 -1 11t-3 10q-2 4 -5 8t-7 7v0zM455 597q-4 -3 -7.5 -7t-5.5 -9q-3 -5 -4 -10.5t-1 -12.5q0 -5 1 -9.5t2 -8.5q2 -4 4.5 -7.5
t5.5 -6.5q3 -2 7.5 -4.5t9.5 -5.5q6 -2 12.5 -4t13.5 -4v102q-5 0 -10.5 -1t-9.5 -2q-5 -2 -9.5 -4.5t-8.5 -5.5v0zM512 960q-106 0 -199.5 -40t-162.5 -110q-70 -69 -110 -162.5t-40 -199.5t40 -199.5t110 -162.5q69 -70 162.5 -110t199.5 -40t199 40t163 110
q70 69 110 162.5t40 199.5t-40 199.5t-110 162.5q-70 70 -163 110t-199 40v0zM512 9q-91 0 -170.5 34.5t-139.5 94.5t-94.5 139.5t-34.5 170.5t34.5 170.5t94.5 139.5t139.5 94.5t170.5 34.5t170.5 -34.5t139.5 -94.5q59 -60 94 -139.5t35 -170.5t-35 -170.5t-94 -139.5
q-60 -60 -139.5 -94.5t-170.5 -34.5v0zM512 807q-74 0 -139.5 -28t-114.5 -77t-77 -114.5t-28 -139.5t28 -139.5t77 -114.5q49 -48 114.5 -76.5t139.5 -28.5t139.5 28.5t114.5 76.5q48 49 76.5 114.5t28.5 139.5t-28.5 139.5t-76.5 114.5q-49 49 -114.5 77t-139.5 28v0z
M678 313l-4 -10t-6 -10q-3 -5 -6.5 -10t-7.5 -10l-10 -10t-11 -9q-6 -5 -13 -9l-14 -8t-15.5 -7t-18.5 -5q-9 -2 -20 -3.5t-22 -2.5v-53h-37v53q-17 1 -32.5 4.5t-29.5 8.5q-13 5 -25 12.5t-22 17.5q-9 9 -17 20.5t-13 25.5q-6 14 -9.5 30t-5.5 35h88q0 -9 1 -17t3 -15
t6 -13t8 -11q5 -5 10.5 -9.5t11.5 -7.5t12.5 -5.5t13.5 -3.5v129q-1 1 -3.5 1.5t-4.5 1.5q-3 1 -6 1.5t-6 1.5q-5 2 -11 3.5t-12 3.5q-5 2 -10.5 4t-11.5 4t-11 4.5t-10 4.5l-10 6t-9 7q-5 3 -9 7t-7 9q-4 4 -7 8.5t-5 10.5q-3 5 -5 11t-3 12q-2 6 -2.5 13.5t-0.5 14.5
q0 8 1 15.5t2 14.5q2 7 4 13.5t5 12.5t6.5 12t7.5 11t8.5 9.5t9.5 8.5t10.5 7.5t11.5 7.5q5 3 11.5 5.5t12.5 4.5q7 3 13.5 4.5t13.5 3.5q6 1 13 2t14 1v48h37v-48q7 0 13.5 -1.5t13.5 -2.5q6 -2 12.5 -4t12.5 -4t12 -4.5t11 -6.5q6 -3 11 -6.5t9 -7.5q5 -4 9 -8t8 -9
t7.5 -10.5t6.5 -11.5t5 -12.5t4 -13.5t3 -14.5t1 -15.5h-88q0 6 -1 12t-3 11t-5 10t-6 9q-4 5 -8 8t-9 5q-4 3 -9 4t-10 1v-110q3 -1 7 -2l8 -2l8 -2l8 -2q12 -3 22 -6.5t19 -7.5t16.5 -8t13.5 -9t11.5 -9.5t10.5 -9.5q4 -4 8 -9t7 -10t5 -10l4 -10t3 -10l2 -10
q1 -10 1.5 -18.5t0.5 -16.5q0 -7 -2 -15.5t-5 -19.5v0z" />
    <glyph glyph-name="uniE62A" unicode="&#xe62a;" 
d="M1024 231v-197q0 -6 -1 -11.5t-3 -10.5q-2 -6 -5.5 -10.5t-7.5 -8.5q-5 -5 -9.5 -8t-9.5 -5q-6 -2 -11.5 -3.5t-11.5 -1.5h-906q-6 0 -11.5 1.5t-11.5 3.5q-5 2 -9.5 5t-9.5 8q-4 4 -7.5 8.5t-5.5 10.5q-2 5 -3 10.5t-1 11.5v197q0 7 1 12.5t3 10.5t5.5 10t7.5 9
q5 5 9.5 8t9.5 5q6 2 11.5 3t11.5 1h286l83 -83q9 -9 19 -15.5t20 -10.5q11 -4 22 -6.5t23 -2.5t23.5 2.5t21.5 6.5t20 10.5t19 15.5l83 83h286q6 0 11.5 -1t11.5 -3q5 -2 9.5 -5t9.5 -8q4 -4 7.5 -9t5.5 -10t3 -10.5t1 -12.5v0zM788 606q6 0 11.5 -1.5t10.5 -4.5
q4 -3 7.5 -7.5t6.5 -10.5q3 -7 3.5 -12.5t-0.5 -11.5q-1 -5 -4 -10t-8 -10l-275 -275q-6 -6 -13 -9t-15 -3t-15 3t-13 9l-275 275q-5 5 -8 10t-4 10q-1 6 0 11.5t3 12.5q3 6 6.5 10.5t7.5 7.5q5 3 10.5 4.5t11.5 1.5h158v275q0 8 3 15t9 13q5 6 12 9t15 3h158q8 0 15 -3
t13 -9q5 -6 8 -13t3 -15v-275h158v0zM776 66q6 6 9 13t3 15t-3 14.5t-9 12.5t-13 9t-15 3t-14.5 -3t-12.5 -9t-9 -12.5t-3 -14.5t3 -15t9 -13t12.5 -9t14.5 -3t15 3t13 9v0zM934 66q5 6 8 13t3 15t-3 14.5t-8 12.5q-6 6 -13 9t-15 3t-15 -3t-13 -9t-9 -12.5t-3 -14.5t3 -15
t9 -13t13 -9t15 -3t15 3t13 9v0z" />
    <glyph glyph-name="uniE62B" unicode="&#xe62b;" 
d="M501 536v0v0v0v0v0v0v0zM699 320v0v0v0v0v0v0zM702 320h-1.5h-1.5v-3l3 3v0zM512 960q-106 0 -199 -40.5t-163 -109.5q-69 -70 -109.5 -163t-40.5 -199t40.5 -199t109.5 -163q70 -69 163 -109.5t199 -40.5t199 40.5t163 109.5q69 70 109.5 163t40.5 199t-40.5 199
t-109.5 163q-70 69 -163 109.5t-199 40.5v0zM837 759h-12t-11 -2q-5 -1 -10 -3t-10 -6q-6 -3 -9.5 -5.5t-9.5 -5.5q-5 0 -10 -0.5t-8 -3.5q-8 -2 -12.5 -11.5t-8.5 -19.5q-5 -9 -11.5 -16t-18.5 -4q-6 1 -10.5 5t-8.5 9t-7.5 10t-6.5 9q-6 8 -11.5 14.5t0.5 14.5h-5.5h-5.5
q3 8 13 10t13 5q8 14 -4.5 16.5t-17.5 5.5q5 8 10.5 2.5t11.5 -2.5q5 3 -0.5 8.5t-10.5 5.5l-13 -1.5t-2 9.5l-16 10t-15 10q-8 5 -15.5 9.5t-15.5 10.5q-3 -11 14 -17.5t22 -11.5q0 -6 -6 -10t-12 -1q-5 2 -5.5 7.5t-9.5 3.5q-2 -7 0 -10t5 -4q4 -1 8 -2.5t6 -5.5
q2 -8 -3.5 -8h-11.5l-4 3.5t-7 0.5q0 -5 6 -5t9 -6q-6 0 -10 1t-9 2q-4 2 -8 5t-10 7q-5 4 -9.5 5.5t-9.5 2.5q-4 0 -9 -0.5t-12 -0.5q3 3 8 4t10 3q6 -2 10.5 3l4.5 5q3 8 0.5 8.5t-7.5 5.5q-6 3 -13.5 9.5t-12.5 9.5q-12 2 -16 -2t-5 -11t-3.5 -14t-12.5 -10v0v0v0v0v0
h-12h-10q-2 -3 -3 -7.5t-4 -7.5q-3 -5 -9.5 -6.5t-12.5 -4.5q-5 -2 -14 -9t-11 -12q-6 -10 -2 -16.5t13 -11.5t19 -8.5t17 -7.5q6 -3 18 -6.5t15 -8.5q6 -5 2.5 -10.5t4.5 -11.5q3 0 7.5 -1.5t7.5 1.5q3 6 -0.5 7.5t-3.5 7.5q-2 11 0 9.5t8 1.5q11 8 10.5 11t-3.5 14
q-3 6 -6 18t2 15q9 6 20 1.5t17 -4.5q5 0 10 -8t8 -11q8 3 12.5 0t9.5 -3q6 0 6 4t5 7q11 8 15 0.5t7 -15.5t8 -12.5t10 -13.5q3 -2 12.5 -9.5t9.5 -15.5q0 -3 -12 -9t-17 -6q-8 -3 -18.5 -2t-19.5 1q-9 -1 -16 -5t-8 -16q5 3 18 11t18 0q3 -3 0.5 -7.5t-0.5 -7.5
q3 -8 10 -7.5t12 0.5h-0.5h-2.5q11 6 11.5 6.5t6.5 8.5q3 3 4 7.5t3 6.5q9 6 11 4t8 -7l6.5 -11t4.5 -11q-7 1 -13.5 1.5t-12.5 0.5q-5 -1 -11 -3t-11 -6q-8 2 -14 -1.5t-12 -6.5q-2 0 -10 -1.5t-8 1.5q3 3 9.5 5.5t8.5 5.5q-8 3 -15.5 -2.5t-13.5 -8.5q-8 -3 -10.5 -8
t-7.5 -10q-3 -3 -7.5 -4t-7.5 -3q-3 -6 -3.5 -9.5t-3.5 -9.5q-3 -2 -5.5 -1.5t-5.5 -1.5q-3 -3 0 -7.5t0 -7.5q-3 -5 -10 -9t-12 -9l0.5 0.5t3.5 2.5q-3 -2 -7.5 -5.5t-7.5 -8.5q0 -6 3.5 -18t3.5 -15q-2 -11 -8.5 -1t-9.5 15q-5 9 -13 11t-17 1q-8 -1 -16.5 -3.5
t-15.5 -4.5q-10 -1 -18.5 -7t-13.5 -14q-5 -9 -6 -19.5t5 -21.5q3 -4 6.5 -7.5t7.5 -5.5t8.5 -2.5t10.5 0.5q4 2 7 5.5t6 7.5q3 3 7 6t9 3q17 0 8.5 -11.5t-8.5 -17.5q0 -5 3 -6.5t8 -4.5q6 0 11 1.5t7 -1.5q3 -3 4 -8.5t4 -2.5q-6 -5 -5.5 -14.5t8.5 -14.5q9 -6 16.5 -3.5
t13.5 -0.5q13 -3 13.5 0t11.5 11q8 6 12.5 3t9.5 -3q3 0 6.5 3.5t11.5 0.5q6 0 9.5 -4t9.5 -4h5h6q5 0 10.5 -1.5t10.5 -4.5t10 -7t9 -8q8 -6 14.5 -7.5t14.5 -3.5q6 -3 16 -10.5t10 -15.5q0 -3 -4 -7.5t-4 -7.5q3 0 11.5 2t10.5 2l-5.5 -3t-5.5 -1q0 -2 4.5 -4.5t6.5 -2.5
q3 14 10.5 10t15.5 -6q8 -3 16 -4t13 -4q6 -2 17 -5.5t16 -8.5q6 -6 4 -15t-7 -15q-3 -4 -6.5 -7t-6.5 -5q-3 -3 -5.5 -6t-3.5 -7q-3 -8 -2 -14.5t-2 -14.5q-3 -11 -4.5 -12l-10.5 -7q-5 -5 -3.5 -6.5t-7.5 -4.5l-8 -2l-8 -2q-3 -2 -6.5 -4t-6.5 -6v0.5v2.5q-3 -2 -3.5 -8.5
t-3.5 -9.5q-3 -5 -6 -9t-9 -9q-3 -3 -14 -17.5t-11 -11.5q0 2 -9.5 -0.5t-9.5 0.5q0 -3 0.5 -3.5t3.5 -0.5q-1 -10 -4 -15.5t-8 -8.5q-4 -3 -10 -4t-15 -1q3 -9 -3 -10.5t-11 -4.5q-3 -3 -4 -9.5t-4 -8.5q0 -3 -5.5 -9.5t-5.5 -9.5q0 -2 2.5 -3t5.5 -4q-7 -1 -13.5 -2.5
t-12.5 -2.5t-12.5 -1.5t-12.5 -0.5q2 3 1 5t-9 2q3 6 7 9.5t4 8.5v4v4q3 8 3 9t-3 9q-1 8 -1 13.5t1 10.5t3 10t5 14q2 6 3 15l2 18t2 18.5t3 17.5q0 8 1.5 21.5t-1.5 18.5q-2 9 -12.5 14.5t-16.5 11.5q-4 4 -7.5 8t-6.5 9q-3 4 -6 9t-5 10q-3 6 -7 11.5t-4 10.5
q-6 11 -3 10.5t3 4.5q0 6 0.5 13t2.5 13q3 8 9.5 14t9.5 11q2 6 0 14t-8 8q-2 0 -7 -1.5t-7 1.5q-6 0 -11.5 4t-10.5 7q-6 6 -9.5 11.5t-9.5 10.5q-5 3 -8.5 3.5t-9.5 0.5q-5 2 -10 7t-8 7q-8 3 -13 0.5t-13 -0.5q-5 0 -14.5 6t-14.5 9q-7 3 -12 6t-9 6q-3 4 -6 9t-6 12
q-3 5 -5.5 9.5t-5.5 8.5t-5.5 7.5t-5.5 7.5q-4 4 -7 8t-6 7q-3 4 -7 6.5t-9 3.5l2 -5.5t2 -8.5q1 -4 3.5 -7.5t5.5 -7.5q2 -3 4.5 -6.5t4.5 -7.5q8 -11 5 -11.5t-9 7.5q-4 5 -8.5 10.5t-9.5 11.5q-4 6 -8 12.5t-7 12.5l-3 9t-4 6q-19 3 -27 4.5t-13 6.5q-9 7 -13.5 15
t-7.5 17q-2 10 -2.5 20t1.5 21q0 6 1.5 11.5t1.5 10.5q0 6 -2.5 11t-8.5 7q0 3 -3.5 7l-3.5 4q-3 6 -6 11.5t-8 10.5q-6 3 -14 8t-16 11q18 22 38.5 41.5t43.5 36.5t48.5 31.5t52.5 25.5q0 -3 2 -5.5t2 -5.5q5 -6 11 -5.5t14 -1.5q0 -6 -3 -9t-7 -4q-5 -1 -10 -0.5t-9 2.5
q-4 0 -8.5 1t-9.5 1t-9.5 -1t-8.5 -5q5 -3 13 -9t8 5h9.5h9.5h9.5h8.5q3 0 13 -3t13 0l2 5.5t5 5.5h-5.5h-5.5q5 8 11 4.5t15 -8.5q-9 -5 -5 -12t12 1q5 8 -0.5 14t-14.5 12q9 11 15 11t15 -11q0 8 6 7t12 -4v8q-3 0 -5.5 1t-5.5 -1q5 11 5.5 15t8.5 7q5 1 11 1.5t12 0.5
q7 1 11.5 2.5t6.5 6.5q-7 -2 -15 -3l-16 -2t-15 -3.5t-13 -6.5q-5 -3 -11 -8t-14 1q-6 5 -0.5 13.5t11.5 11.5v0q11 3 22.5 5t23.5 3q12 2 24 2.5t25 0.5h15.5h15.5q7 -1 15 -1.5t16 -2.5q-6 -2 -4 -5t-3 -5q-5 -3 -9.5 -6t-9.5 -5t-10.5 -4t-11.5 -4q6 0 14.5 -2t17.5 -2
q9 -1 16.5 1t10.5 11h-7.5t-7.5 3q6 6 13.5 9t15.5 6q35 -8 67 -21t61 -31q30 -17 56.5 -39t49.5 -48h3h-3v0zM922 580l1.5 1.5l1.5 1.5q0 3 0.5 4t3.5 4q3 2 3.5 3t3.5 4l0.5 0.5l3.5 3.5q3 -9 5.5 -17t4.5 -16q3 -9 5 -17t3 -16v0v0l-4 -2t-7 -2t-5.5 2.5t-5.5 4.5
q-3 3 -5.5 6t-5.5 5q-2 3 -1 7.5t1 7.5q-2 3 -2.5 7.5t-0.5 7.5v0zM929 346q-6 5 -13 13t-13 16q-2 4 -3 8t-1 8t0.5 8.5t0.5 8.5q0 8 -1.5 17.5t1.5 15.5l4.5 4.5l2.5 2.5q3 5 4 9t3 9q3 6 8 7.5t11 7.5q5 5 6.5 9t4.5 9q2 3 6.5 9.5t7.5 8.5q2 -8 2.5 -16t0.5 -17
q1 -8 1 -17v-19q0 -15 -1 -30l-2 -30q-2 -15 -5 -29t-7 -28q-5 3 -9 6t-9 9v0z" />
    <glyph glyph-name="uniE62C" unicode="&#xe62c;" 
d="M885 955l-118 -117l139 -137l118 117l-139 137v0zM330 255l-37 38l450 445l-38 38l-592 -585v-1l-113 -249l251 113v-1l1 2l591 584l-62 62l-451 -446v0zM238 117l-110 -49l50 109l55 55l8 -52l52 -8l-55 -55v0z" />
    <glyph glyph-name="uniE62D" unicode="&#xe62d;" 
d="M986 750h-943l469 -401l474 401v0zM512 277l-481 411v-542h962v538l-481 -407v0z" />
    <glyph glyph-name="uniE62E" unicode="&#xe62e;" 
d="M6 521v-585h1012v585l-506 -430l-506 430v0zM512 960l-506 -419h1012l-506 419v0z" />
    <glyph glyph-name="uniE62F" unicode="&#xe62f;" 
d="M1013 488q3 -5 5 -10t3 -10q2 -5 2.5 -10t0.5 -10t-0.5 -10t-2.5 -10q-1 -4 -3 -9t-5 -10q-20 -33 -43.5 -62.5t-50.5 -56.5q-27 -26 -57.5 -49t-64.5 -43t-68.5 -34.5t-70.5 -24.5q-35 -10 -71.5 -15t-74.5 -5t-74.5 5t-71.5 15q-36 10 -71 25t-68 35q-34 19 -64.5 42
t-57.5 50q-27 26 -50.5 55.5t-43.5 62.5q-3 5 -5 10t-3 9q-2 5 -2.5 10t-0.5 10t0.5 10t2.5 10q1 5 3 10t5 10q20 32 43.5 61.5t50.5 56.5q27 26 57.5 49t64.5 43t68.5 34.5t70.5 24.5q35 10 72 15t74 5q38 0 74.5 -5t71.5 -15q36 -10 71 -24.5t68 -34.5q34 -20 64.5 -43
t57.5 -49q27 -27 50.5 -56.5t43.5 -61.5v0v0zM951 448q-22 34 -46.5 63.5t-51.5 54.5t-57 46t-63 38q9 -15 15.5 -30.5t10.5 -31.5q5 -16 7 -33t2 -34q0 -26 -4.5 -50.5t-14.5 -47.5q-9 -22 -23 -43t-33 -40t-39.5 -33t-43.5 -23q-23 -10 -47.5 -14.5t-50.5 -4.5t-50.5 4.5
t-47.5 14.5q-23 9 -43.5 23t-39.5 33t-33 40t-23 43q-10 23 -14.5 47.5t-4.5 50.5q0 17 2 34t7 33q4 16 10.5 31.5t15.5 30.5q-33 -17 -63 -38t-57 -46t-51.5 -54.5t-46.5 -63.5q19 -29 40.5 -55.5t45.5 -49.5t50 -43.5t55 -37.5q28 -18 58 -31t61 -22q31 -8 63.5 -12.5
t65.5 -4.5t65.5 4.5t63.5 12.5q31 9 61 22t58 31q29 17 55 37.5t50 43.5t45.5 49.5t40.5 55.5v0zM512 640q6 0 10.5 2t8.5 6t6 9t2 11q0 5 -2 10t-6 9t-8.5 6t-10.5 2q-18 0 -34.5 -3t-31.5 -10q-16 -6 -30 -15.5t-27 -22.5t-22.5 -27t-15.5 -29q-6 -16 -9.5 -32.5
t-3.5 -34.5q0 -5 2 -10t6 -9t9 -6t11 -2q5 0 10 2t9 6t6 9t2 10q0 12 2 23.5t7 22.5q4 10 10.5 19.5t15.5 18.5t18.5 15.5t19.5 10.5q11 5 22.5 7t23.5 2v0v0z" />
    <glyph glyph-name="uniE630" unicode="&#xe630;" 
d="M350 662q31 0 58 12t47 32t32 47t12 58t-12 58t-32 47q-20 21 -47 32.5t-58 11.5t-58 -11.5t-48 -32.5q-20 -20 -31.5 -47t-11.5 -58t11.5 -58t31.5 -47q21 -20 48 -32t58 -12v0zM790 307q22 0 41.5 8.5t34.5 22.5q14 15 22.5 34.5t8.5 41.5t-8.5 41.5t-22.5 34.5
q-15 14 -34.5 22.5t-41.5 8.5t-41.5 -8.5t-33.5 -22.5q-15 -15 -23.5 -34.5t-8.5 -41.5t8.5 -41.5t23.5 -34.5q14 -14 33.5 -22.5t41.5 -8.5v0zM890 262q-6 6 -13 10.5t-19 7.5q-11 4 -27.5 5.5t-41.5 1.5t-41 -3t-27 -7t-18 -8t-14 -7l-97 -29q0 7 -2.5 60t-7.5 116
q-5 64 -12.5 119t-19.5 67q-11 12 -25.5 21t-37.5 16q-22 6 -56 9.5t-85 3.5q-50 0 -83.5 -3.5t-56.5 -10.5q-22 -6 -36 -15.5t-25 -20.5q-22 -22 -21 -185l1 -163l66 157l42 -468l120 239l111 -239l40 468l87 -171h-1l122 -32l20 -265l60 118l55 -118l20 231l32 -77l1 80
t-10 92v0z" />
    <glyph glyph-name="uniE631" unicode="&#xe631;" 
d="M393 838q20 0 44 -1t50 -5q27 -3 55 -8t58 -14q28 -7 56.5 -18t56.5 -26q28 -14 55 -32t52 -41q13 -12 25.5 -25.5t24.5 -27.5q12 -15 23 -31t21 -34l17 5q0 11 -1 21l-2 20t-2.5 20t-2.5 20l-1 2l-1 2q-8 9 -15.5 18.5t-15.5 17.5q-8 9 -16.5 17t-16.5 16
q-28 25 -58 45.5t-61 36.5q-30 15 -61.5 27t-61.5 21q-26 7 -51 12t-48 8q-24 4 -46 6t-42 2l-3 1l-2 -2q-7 -4 -13.5 -8.5t-12.5 -9.5q-6 -4 -12.5 -9t-12.5 -10l-21 -17l27 1h7h8v0zM175 438q5 0 9.5 0.5t9.5 0.5t9.5 1t9.5 1v0q9 2 18 4.5t18 6.5q8 4 16.5 8.5t16.5 11.5
q7 6 14 14t13 17t10.5 19.5t7.5 22.5l4 16t3 17q1 8 2.5 16t3.5 15q3 12 7.5 22t10.5 18q5 9 11 15.5t13 12.5q10 8 21.5 14t23.5 11q12 4 23.5 6t22.5 3q6 1 12 1h11h7.5h6.5t6 -0.5t4 -0.5h1.5h1.5v0v0q2 -1 3 -1h2q5 0 9.5 2t8.5 5q3 3 5.5 7t3.5 9v3v2q0 5 -1.5 9.5
t-4.5 8.5q-3 3 -7.5 5.5t-9.5 3.5l-10 1t-26 1h-14.5t-16.5 -1q-8 -1 -17 -2.5t-18 -3.5q-11 -3 -21.5 -6.5t-20.5 -8.5q-11 -4 -21 -10.5t-20 -14.5q-10 -9 -19 -19t-17 -22t-14 -25.5t-10 -29.5q-2 -5 -3 -9.5t-2 -9.5l-2 -10t-1 -11l-2 -12t-3 -12q-2 -8 -5 -15t-7 -12
q-3 -6 -7 -10.5t-9 -8.5q-6 -5 -14 -9t-16 -6q-9 -3 -19 -4t-20 -1h-2h-10t-10 1q-5 0 -10.5 1t-10.5 1l-7 2l-3 -8q-1 -4 -2.5 -8.5t-2.5 -9.5q-2 -4 -3 -8.5t-3 -9.5l-2 -9l10 -2q6 -1 12.5 -2t13.5 -2t14 -1.5t14 -0.5v0zM151 526q11 1 21 4t19 7t16.5 9.5t13.5 12.5
q7 7 12 14t9 15t7 16t5 16q3 10 4.5 19.5t2.5 19.5t1.5 19t0.5 18v6.5v6.5v5.5v4.5l-1 11l15 6q10 4 20 7t21 6q10 3 21 5.5t22 4.5q5 1 9.5 3.5t7.5 5.5q3 4 4.5 8.5t1.5 9.5v2.5v2.5l-9 -2l9 2q-1 5 -3.5 9t-6.5 7q-3 3 -7.5 5t-9.5 2q-2 0 -3 -0.5t-2 -0.5q-8 -1 -16 -3
t-16 -3l-2 -1l-2 -2l-12.5 -12.5t-12.5 -13.5t-12 -13.5t-12 -13.5l-6 -8v1l-5 -7l-10 -12h1l-1 -1q-5 -7 -10 -13.5t-10 -13.5q-4 -7 -9 -14t-9 -15l-1 -1l-1 -3q0 -7 -1.5 -14.5t-3.5 -14.5q-2 -8 -5 -15t-7 -13q-3 -5 -7.5 -9.5t-9.5 -7.5q-1 -1 -3 -2l-4 -2l-4 -2l-1 -3
q-3 -5 -5 -10.5t-5 -10.5q-2 -5 -4.5 -10.5t-4.5 -10.5l-5 -14l15 1v0v0v0zM594 923q10 -2 20 -5l20 -6q9 -3 18.5 -7t18.5 -8v0q3 -1 6 -1.5t5 -0.5q8 0 15 4t11 12q1 3 1.5 6t0.5 6q0 7 -4 14t-12 11l-10 4l-10 4v0h-1q-6 1 -11 2t-11 1q-5 1 -10.5 1h-10.5
q-10 0 -19.5 -0.5t-19.5 -2.5q-9 -1 -19 -3l-20 -4l1 -18l10 -2l10 -2q6 -1 11 -2.5t10 -2.5v0zM162 135q44 0 81.5 4t69.5 12q33 8 60 19.5t50 25.5q29 18 50.5 39t36.5 43q16 22 25.5 44.5t15.5 43.5q4 13 6 25.5t4 22.5q1 11 1.5 20t0.5 16q0 8 -0.5 13l-0.5 5v1
q0 5 -2.5 9.5t-6.5 7.5q-4 4 -8.5 5.5t-9.5 1.5h-2h-2q-5 0 -9.5 -2.5t-7.5 -6.5t-5 -8.5t-2 -9.5v-1.5v-1.5v0v0l0.5 -3.5t0.5 -9.5q0 -5 -0.5 -12.5t-1.5 -16.5t-3 -19t-5 -21q-5 -17 -13 -35t-20 -36q-13 -18 -30 -35t-41 -32q-19 -11 -42 -21t-52 -17t-63 -11t-75 -4
h-11.5h-10.5q-6 0 -11.5 0.5t-11.5 0.5l-13 1l4 -12q1 -5 2.5 -10t2.5 -10q2 -5 3.5 -9.5t3.5 -9.5l2 -5l6 -1h8.5h8.5h8.5h8.5v0v0zM735 871v0v0v0v-1h1v0v0q6 -3 31.5 -15.5t57.5 -32.5q6 -4 12 -8.5t13 -8.5l13 12q-9 14 -19.5 27.5t-22.5 25.5q-11 13 -23.5 24t-26.5 21
h-1l-1 1q-6 3 -9.5 4.5l-3.5 1.5q-3 1 -5.5 1.5t-5.5 0.5q-4 0 -7.5 -1.5t-7.5 -3.5q-3 -2 -6 -5t-4 -7q-1 -3 -1.5 -5.5t-0.5 -5.5q0 -4 1 -8t3 -7t5.5 -6t7.5 -4v0zM781 307q-16 71 -35 112.5t-19 42.5l-8 -4l8 4q-4 7 -10.5 11t-14.5 4q-3 0 -6.5 -1t-6.5 -2
q-7 -4 -10.5 -10.5t-3.5 -14.5q0 -3 0.5 -6t2.5 -7v0v0q3 -5 20 -45t31 -104q4 -17 7 -35.5t6 -37.5q2 -19 3.5 -39.5t1.5 -42.5v-25l16 19q4 6 9 11.5t9 11.5q5 5 9 11t9 12l2 3l-1 3q-1 18 -3 35t-4 33q-2 17 -5 32t-7 29v0zM805 506q-24 37 -51 63t-54 44
q-28 18 -53.5 29t-46.5 16q-10 3 -19 5t-15 3q-4 1 -7 1.5t-5 0.5h-2h-1q-1 0 -1 0.5v0.5h-1v0v0q-7 1 -13.5 2t-13.5 1q-6 1 -12 1.5t-12 0.5t-12.5 -0.5t-12.5 -1.5t-11.5 -2t-10.5 -3q-9 -2 -17 -6t-15 -8q-7 -5 -13.5 -10.5t-11.5 -11.5q-9 -10 -16 -22t-12 -24
t-9 -24.5t-8 -25.5l-6 -18l-6 -18t-6.5 -17.5t-6.5 -16.5q-3 -6 -6.5 -11.5t-6.5 -10.5l-8 -10t-8 -9q-7 -7 -15.5 -12.5t-18.5 -10.5t-22.5 -9t-27.5 -6q-6 -1 -11.5 -1.5t-12.5 -1.5q-6 0 -12.5 -0.5t-13.5 -0.5q-6 0 -12.5 0.5t-12.5 0.5q-7 0 -14 0.5t-14 1.5l-9 1
l-1 -9q-1 -4 -1.5 -9t-0.5 -9q-1 -5 -1.5 -9.5t-0.5 -9.5l-1 -9l9 -1q8 -1 15.5 -1.5t15.5 -0.5q7 -1 14 -1h14q20 0 38 1.5t34 5.5q16 3 30.5 8t26.5 12q17 8 30 18.5t23 22.5q10 11 18 24t14 26q5 10 8.5 19.5t7.5 19.5q3 9 6 18.5t5 18.5q2 7 4.5 13.5t4.5 12.5t4 11.5
t4 10.5q4 7 8 13.5t8 11.5q3 4 6.5 7t7.5 6q4 2 9 4t11 4t13 2.5t16 0.5h9.5t9.5 -1q5 0 10.5 -1t11.5 -2q2 0 3.5 -0.5t3.5 -0.5q6 -1 16 -2.5t23 -5.5q18 -5 39.5 -14t44.5 -24t46 -37.5t43 -53.5q13 -20 24 -43.5t20 -52.5q9 -28 15.5 -61.5t9.5 -72.5l3 -29l15 26
q4 7 8 14.5t8 15.5q3 7 7 14.5t7 15.5l1 3v2q-5 31 -12.5 59t-16.5 52q-9 25 -19.5 46.5t-22.5 40.5v0zM709 278q0 1 -0.5 2t-0.5 2v0v1v0v0q-1 5 -3 9.5t-6 7.5q-4 4 -8.5 5.5t-9.5 1.5h-2h-2v0q-5 -1 -9.5 -3.5t-7.5 -5.5q-3 -4 -5 -8.5t-2 -10.5v-1v-2v-0.5v-0.5
q1 -3 2 -18t1 -39q0 -14 -0.5 -31t-2.5 -36q-3 -19 -6.5 -39t-9.5 -40q-1 -7 -3.5 -13t-4.5 -13q-2 -6 -4.5 -12.5t-5.5 -13.5l-12 -28l26 17q7 5 13.5 10t13.5 10t13.5 10.5t13.5 10.5l2 2l1 3v0.5t1 1.5q6 23 10 45t6 43q3 20 4 38.5t1 34.5q0 8 -0.5 14.5t-0.5 12.5
t-0.5 11t-0.5 9t-0.5 7.5t-0.5 5.5v0zM642 749v0q-3 1 -5.5 2t-5.5 1q-8 0 -15 -4.5t-10 -12.5q-2 -3 -2.5 -5.5t-0.5 -5.5q0 -8 4.5 -15t12.5 -10l3 -2q36 -16 67.5 -35.5t58.5 -41.5q26 -23 48.5 -48t41.5 -52l16 -26t15 -27t13.5 -27.5t12.5 -27.5l10 -27l7 28
q2 8 3.5 16t3.5 16t3 16t2 15l1 3l-2 3q-20 41 -47.5 79.5t-61.5 72.5q-35 35 -78 64t-95 51v0zM615 164q0 5 -1.5 9.5t-4.5 7.5q-3 4 -7.5 6.5t-9.5 3.5v0h-2h-3q-5 0 -9.5 -1.5t-7.5 -4.5q-4 -3 -6.5 -7.5t-3.5 -9.5q-1 -7 -2.5 -14.5t-2.5 -15.5t-3 -15.5t-4 -15.5
q-3 -10 -6.5 -19t-7.5 -19q-4 -9 -9.5 -18.5t-12.5 -18.5q-8 -10 -18.5 -20.5t-24.5 -20.5q-13 -10 -29.5 -19.5t-36.5 -17.5l3 -18h2.5h2.5q12 0 23.5 1t23.5 2q12 2 23.5 4.5t22.5 5.5h2l2 2q7 5 13.5 11t12.5 12t11.5 12t10.5 13q9 11 16 23t12 24q6 12 10 23.5t7 22.5
q3 9 5 18t3 18q2 8 3.5 16t2.5 15v2.5v2.5v0zM496 58q3 3 4.5 7.5t1.5 9.5q0 6 -2.5 11.5t-7.5 10.5q-4 3 -8.5 4.5t-9.5 1.5q-6 0 -11.5 -3t-9.5 -8q-6 -7 -12 -13l-12 -12q-7 -6 -14.5 -11t-15.5 -9q-13 -7 -29 -12.5t-36 -10.5q-21 -5 -46 -8t-56 -5l-26 -1l21 -15
q6 -5 13 -9.5t15 -9.5q7 -4 14.5 -7.5t15.5 -7.5h2h3q6 1 11.5 1.5t11.5 1.5q17 3 32.5 6.5t29.5 7.5t26.5 9t23.5 11t21 13t19 14l16 16t15 17v0zM645 356l-9 2l9 -2l4 16t3 17q2 8 3 16.5t1 16.5q1 7 1 13v12q0 13 -1 25t-3 22q-2 11 -5.5 21t-7.5 18q-5 11 -12 20t-15 16
q-9 7 -18 12t-19 8l-14 2t-14 1q-9 0 -18.5 -1.5t-18.5 -4.5t-18 -7.5t-17 -9.5q-11 -8 -21 -17.5t-18 -21.5q-9 -11 -15.5 -24.5t-10.5 -28.5q-2 -5 -3 -11l-2 -12q-1 -5 -1 -11.5v-12.5v-4v-5v-3.5v-3.5q0 -9 -1 -17.5t-3 -15.5q-2 -6 -4.5 -11.5t-5.5 -10.5
q-2 -6 -5.5 -10.5t-7.5 -8.5q-7 -7 -16 -13.5t-20 -12.5q-10 -5 -22 -9.5t-24 -8.5q-16 -4 -32.5 -7t-33.5 -5q-16 -1 -33 -2t-33 -1h-14.5t-15.5 1q-8 0 -16 0.5t-15 0.5l-10 1v-10q1 -5 1 -10t1 -9q0 -5 0.5 -10t1.5 -9l1 -8h7q7 -1 14 -1t14 -1h15.5h15.5h14.5h14.5
q7 1 14.5 1t14.5 1q18 1 35.5 3.5t35.5 6.5q17 4 34 10t33 13q8 4 16 8.5t15 9.5t14 11t13 12t11.5 13.5t9.5 15.5q5 8 8.5 16.5t6.5 18.5q1 5 2.5 11t2.5 12q0 6 0.5 12t0.5 13v4.5v5.5v3.5v2.5q0 9 1 17t3 15q3 10 7.5 19t9.5 17q6 8 12.5 14t13.5 11q5 3 10.5 6t10.5 4
q5 2 10 3t10 1q4 0 7 -0.5t6 -1.5q4 -1 8 -3t8 -5q3 -3 6.5 -7.5t6.5 -10.5q3 -5 5 -11.5t4 -14.5q1 -7 2 -16.5t1 -19.5v-10t-1 -11q0 -7 -1 -14l-2 -14t-3 -13.5t-3 -13.5q-10 -35 -28.5 -67t-44.5 -59q-25 -28 -57.5 -51.5t-69.5 -41.5q-26 -12 -53.5 -21.5t-57.5 -16.5
q-29 -6 -59.5 -9.5t-62.5 -3.5h-2.5h-3.5h-16l8 -14q3 -5 6 -9.5t6 -9.5t6.5 -9.5t6.5 -8.5l3 -4h5q32 1 63 5t61 11t58.5 17.5t55.5 22.5q41 20 78 46.5t66 58.5q30 32 51.5 69.5t33.5 79.5v0z" />
    <glyph glyph-name="uniE632" unicode="&#xe632;" 
d="M36 -64h114v976h-114v-976v0zM620 830v0q-95 175 -251.5 128l-156.5 -47v-514l90 67t250 -80t298 76l138 223l-113 -42t-255 189v0z" />
    <glyph glyph-name="uniE633" unicode="&#xe633;" 
d="M0 159l422 491l227 -178l375 265l-375 -488l-227 179z" />
    <glyph glyph-name="uniE634" unicode="&#xe634;" 
d="M876 705q0 39 -26 45.5l-26 6.5h-624l-26 -6.5t-26 -45.5v-51h728v51v0zM720 860h-416l-26 -6.5t-26 -45.5h520q0 39 -26 45.5l-26 6.5v0zM980 654q-23 23 -27 26.5l-4 3.5v-82h-874v82l-4 -3.5t-27 -26.5q-12 -11 -21.5 -19.5t-14.5 -19.5q-6 -10 -7.5 -25t3.5 -39
q4 -24 16 -93t25 -145t24.5 -142t14.5 -83q8 -40 36 -46l28 -6h728l28 6t36 46q3 17 14.5 83t24.5 142t25 145t16 93q5 24 3.5 39t-7.5 25q-5 11 -14.5 19.5t-21.5 19.5v0zM720 376l-6.5 -26t-45.5 -26h-312q-39 0 -45.5 26l-6.5 26v103h73v-83h270v83h73v-103v0z" />
    <glyph glyph-name="uniE635" unicode="&#xe635;" 
d="M223 291q6 2 11.5 4.5t10.5 4.5q6 2 11 4t11 5q8 4 16.5 7.5t16.5 7.5q8 3 16.5 6.5t16.5 7.5q0 3 -2 4t-2 4q-3 0 -7.5 0.5t-6.5 2.5q0 11 5.5 16t8.5 14q3 8 2.5 17.5t4.5 14.5q3 6 7.5 7.5t7.5 3.5q3 3 5 10t2 12v6v5q-8 9 -13 20t-8 23t-4.5 23.5t-3.5 21.5v5.5v5.5
q0 8 2.5 16t4.5 13v2v2q-1 4 -2 8.5t-1 9.5q-1 5 -1.5 9.5t-2.5 9.5h-7l-11 11q-15 9 -30.5 11t-29.5 0q-15 -2 -27.5 -6.5t-22.5 -8.5q-12 -4 -22 -15t-16 -28q-6 -16 -7 -38.5t5 -50.5q3 -8 -2 -14t-5 -11v-14.5t1 -17.5q2 -9 5 -16.5t8 -10.5l5.5 -2l5.5 -2
q0 -5 0.5 -10.5t1.5 -11.5q1 -5 1.5 -10.5t0.5 -10.5q3 -9 7.5 -12t6.5 -14l-10 -4q-3 -8 -10 -19.5t-12 -16.5q-6 -3 -11.5 -4t-10.5 -4l-20 -8t-21 -8l-20 -8t-20 -9q-8 -1 -17 -2.5t-18 -5.5q-9 -3 -16 -9t-11 -15v-17.5v-21.5v-23v-19h117v11.5v10.5v11v11v9.5v8.5v8
q6 15 15 25.5t20 17.5t23 11.5t22 7.5q9 5 15 6.5t11 4.5v0zM1024 229q-3 9 -9.5 15t-14.5 10q-9 4 -19 7.5t-19 7.5q-10 4 -20 8.5t-20 9.5q-11 4 -21 8t-20 7q-5 2 -10.5 3t-11.5 4q-5 6 -12 17t-10 20q-2 0 -6.5 0.5t-7.5 2.5q0 11 6 16t8 14q3 8 2.5 17.5t5.5 14.5
q3 6 7.5 7.5t6.5 3.5q3 3 5.5 10t2.5 12q1 4 1.5 9.5t0.5 10.5q0 6 -0.5 11t-1.5 10q-3 5 -4 7t-4 7q0 8 2 26.5t2 21.5v13v12q-1 7 -1.5 13t-2.5 13l-3 8t-11 14l-18 4l-11 11q-16 9 -31.5 11t-30.5 0t-27.5 -6.5t-20.5 -8.5q-6 -2 -10.5 -4.5t-8.5 -6.5q-4 -3 -7.5 -8
t-6.5 -10v-6v-5v-0.5v-3.5v0v0q0 -3 2 -4t2 -3q4 -10 5.5 -20t1.5 -20q0 -9 -1 -18t-3 -15q0 -5 -1 -10t-3 -11q-2 -5 -5 -10.5t-5 -9.5q-3 -2 -4 -4.5t-4 -2.5q0 -6 1 -11.5t2 -11.5q2 -5 5 -10t7 -7l5.5 -2l5.5 -2q0 -5 0.5 -10.5t1.5 -11.5q0 -5 1 -10.5t1 -11.5
q2 -8 6.5 -11t7.5 -14l-11 -4l-0.5 -2.5t-2.5 -4.5q8 -3 16 -6.5t16 -7.5q9 -3 17 -7.5t16 -8.5q6 -2 11.5 -5t10.5 -5q6 -3 11.5 -5t10.5 -3q6 -3 11.5 -3.5t10.5 -3.5q11 -4 23 -8.5t23 -11.5t20 -17t15 -25v-8v-15.5v-24.5v-10.5v-11.5h124v19v23v21.5v17.5v0zM790 265
l-28 12t-29 12q-14 6 -28.5 12t-27.5 12q-5 1 -9 2.5t-8 2.5t-8 1.5t-8 0.5q-4 3 -9 9t-9 14q-5 7 -9 15t-6 13q-6 0 -11 2t-8 2q0 8 2.5 13t5.5 8l6 8t5 11q1 6 1.5 12t0.5 12t1 12t4 12q3 8 11 10t11 8q3 5 5.5 14.5t5.5 14.5q1 7 2.5 14.5t1.5 14.5t-2 14t-6 12
q-2 8 -4.5 11t-2.5 11q0 5 0.5 15t1.5 21t1.5 20t0.5 13q0 10 -0.5 19t-0.5 18q-1 9 -2.5 18t-4.5 19l-5 11.5t-13 17.5l-22 4l-11 14q-22 14 -44 17t-42 1q-20 -3 -37.5 -9.5t-29.5 -12.5q-18 -5 -32.5 -20.5t-23.5 -39.5q-8 -24 -9.5 -56t6.5 -70q3 -14 -3.5 -20.5
t-3.5 -12.5q0 -8 0.5 -20t3.5 -24q2 -12 6.5 -22t11.5 -14l7 -2l7 -2q2 -7 2.5 -14.5t1.5 -14.5q1 -8 1.5 -15.5t2.5 -14.5q1 -5 4 -8.5t6 -6.5t5.5 -7t2.5 -10l-15 -4q-2 -6 -5.5 -13.5t-7.5 -14.5q-5 -8 -9.5 -14.5t-10.5 -8.5q-4 -2 -8 -3l-8 -2l-8 -2t-9 -1
q-13 -5 -27.5 -11t-28.5 -12q-15 -7 -29 -13t-28 -11q-12 -6 -25.5 -10t-24.5 -9q-12 -6 -21 -14t-13 -22q0 -10 -0.5 -24t-0.5 -30q-1 -16 -0.5 -31.5t1.5 -27.5h731v27.5v31.5v30v24q-6 12 -17 19.5t-23 12.5q-12 6 -25.5 10t-25.5 9v0z" />
    <glyph glyph-name="uniE636" unicode="&#xe636;" 
d="M952 678q-21 22 -46.5 37t-52.5 24q-27 8 -55.5 10.5t-56.5 -2.5l-80 80q-4 5 -10 7.5t-12 2.5t-12 -2.5t-10 -7.5l-56 -55q-14 12 -30 21.5t-33 16.5q-18 6 -36.5 9.5t-37.5 3.5q-6 0 -11.5 -0.5t-11.5 -0.5q-6 -1 -11.5 -2t-10.5 -2q-6 5 -13.5 7.5t-16.5 2.5
t-17.5 -3.5t-14.5 -9.5q-7 -6 -10.5 -14t-4.5 -18q-17 -12 -31 -26.5t-25 -32.5q-11 -17 -18.5 -36.5t-11.5 -40.5h-84q-7 0 -12.5 -2.5t-10.5 -6.5q-4 -4 -6.5 -10t-2.5 -12v-114q-23 -16 -41.5 -38t-31.5 -47t-20 -53.5t-7 -58.5q0 -51 19.5 -96t52.5 -78t77.5 -52.5
t95.5 -19.5t95.5 19.5t78.5 52.5q33 33 52 78t19 96q0 30 -7 58.5t-20 53.5t-31.5 47t-41.5 38v114q0 6 -2.5 12t-6.5 10t-10 6.5t-12 2.5h-87q3 14 8.5 26.5t13.5 23.5q7 12 16 21.5t20 18.5q5 -2 9.5 -3.5t9.5 -1.5q8 0 15.5 2.5t13.5 7.5q6 4 10 10t7 14q7 1 14.5 1.5
t14.5 0.5q14 0 27 -2t26 -7q12 -4 23.5 -10.5t22.5 -15.5l-67 -66q-4 -5 -6.5 -10.5t-2.5 -11.5t2.5 -12t6.5 -11l81 -80q-5 -28 -2.5 -56t10.5 -55q9 -28 24 -53t36 -46q36 -36 81.5 -54t92.5 -18t92 18t81 54q36 35 54 80.5t18 92.5t-18 92t-54 81v0zM419 305
q0 -36 -14 -68t-37 -55q-24 -24 -55.5 -37.5t-67.5 -13.5t-67.5 13.5t-55.5 37.5q-23 23 -36.5 55t-13.5 68q0 35 13.5 67t36.5 55q24 24 55.5 37.5t67.5 13.5t67.5 -13.5t55.5 -37.5q23 -23 37 -55t14 -67v0zM245 548q-6 0 -11.5 2.5t-9.5 6.5t-6.5 9.5t-2.5 11.5
q0 7 3.5 13.5t8.5 10.5q1 0 2 0.5t2 1.5h0.5h0.5q1 1 1.5 1t1.5 1h1.5t0.5 1h1.5h1.5t2.5 0.5t2.5 0.5q2 0 3.5 -0.5t3.5 -0.5v0v0l3 -1.5t3 -0.5q4 -2 7 -5t5 -6q3 -4 4 -8t1 -8q0 -6 -2.5 -11.5t-6.5 -9.5t-9.5 -6.5t-11.5 -2.5v0zM564 677q-4 4 -6 9t-2 10q0 6 1.5 11
t4.5 10q1 0 1.5 1l0.5 1q2 2 3.5 3t2.5 2h1h1q1 1 2.5 1.5t2.5 1.5h0.5h0.5q4 1 7.5 1t7.5 -1t7.5 -3t6.5 -5q4 -4 6 -9.5t2 -11.5t-2 -11.5t-6 -9.5q-5 -4 -10.5 -6.5t-10.5 -2.5q-6 0 -11.5 2.5t-10.5 6.5v0zM901 382q-25 -25 -57 -38t-65 -13t-65 13t-58 38
q-25 26 -38 58t-13 65t13 65t38 58q26 25 58 37.5t65 12.5t65 -12.5t57 -37.5q26 -26 38.5 -58t12.5 -65t-12.5 -65t-38.5 -58v0z" />
    <glyph glyph-name="uniE637" unicode="&#xe637;" 
d="M623 408l-29 56l-63 -151q-3 -7 -9 -9.5t-14 -2.5v0v0q-8 0 -14 0.5t-9 8.5l-92 234l-60 -133q-3 -7 -9 -3.5t-14 3.5h-46q77 -83 166.5 -174l89.5 -91v-4t0 -3q0 -1 0 5.5v6.5l90 88.5t167 171.5h-131q-7 0 -13.5 -5t-9.5 2v0zM370 645q3 7 9.5 14.5t13.5 7.5v0v0
q8 0 14 -13t9 -20l93 -248l62 152q2 7 8.5 13t13.5 6v0v0q8 0 14 -2.5t9 -8.5l46 -99h159q7 14 13.5 21.5t12.5 11.5q6 5 10 8.5t7 10.5q16 34 17.5 70t-10.5 69q-12 32 -36.5 59t-59.5 43t-71.5 17t-70.5 -12q-33 -12 -60.5 -37t-44.5 -59q-2 -5 -4 -12l-4 -14q-1 7 -3 13
t-5 11q-16 34 -43.5 58.5t-61.5 36.5q-33 12 -70 10.5t-71 -17.5q-35 -16 -59.5 -42t-36.5 -58q-12 -31 -11 -66.5t18 -69.5q3 -6 7 -10t10 -8q5 -5 12 -12.5t14 -21.5h74l76 198v0zM25 447q-11 0 -18 -4t-7 -14t7 -14t18 -4h239q-6 0 -12 5.5t-11 12.5q-6 7 -11 12.5
t-10 5.5h-195v0zM999 447h-178q-5 0 -10.5 -5.5t-10.5 -12.5t-11 -12.5t-12 -5.5h222q11 0 18 4t7 14t-7 14t-18 4v0z" />
    <glyph glyph-name="uniE638" unicode="&#xe638;" 
d="M513 960q-105 0 -198 -40t-162 -109q-69 -70 -109 -162.5t-40 -198.5q0 -105 40 -198t109 -162q69 -70 162 -110t198 -40q106 0 199 40t162 110q69 69 109 162t40 198q0 106 -40 198.5t-109 162.5q-69 69 -162 109t-199 40v0zM513 28q-87 0 -164 33.5t-134 90.5
t-90.5 134t-33.5 164t33.5 164t90.5 134q57 58 134 91t164 33q88 0 164.5 -33t134.5 -91q57 -57 90 -134t33 -164t-33 -164t-90 -134q-58 -57 -134.5 -90.5t-164.5 -33.5v0zM453 116h131v127h-131v-127v0zM672 722q-17 12 -35.5 21t-38.5 15q-21 5 -43.5 8t-47.5 3
q-19 0 -36.5 -2t-33.5 -6q-15 -4 -29.5 -10.5t-27.5 -14.5q-21 -13 -36.5 -30.5t-26.5 -39.5q-11 -23 -17 -49.5t-8 -57.5h127q0 9 1.5 18t4.5 18q2 8 6 17t9 17q6 8 13 14.5t16 10.5q9 5 20 7t23 2q13 0 24 -2t20 -5q9 -4 16 -9t12 -12l8 -14t6 -15q3 -7 4 -15t1 -16
t-1 -15t-3 -13q-2 -7 -5.5 -13.5t-7.5 -12.5q-3 -3 -5.5 -6.5t-6.5 -6.5l-6.5 -6.5t-7.5 -5.5l-32 -25q-12 -10 -21.5 -18.5t-16.5 -16.5t-12 -16t-8 -15t-5.5 -17t-4.5 -22q-1 -13 -2.5 -29t-1.5 -34h119q0 9 0.5 16.5t0.5 13.5q1 7 2 12l2 10q2 6 5.5 12.5t7.5 11.5
q4 6 9.5 11.5t11.5 10.5l31 24q12 9 22 17.5t18 15.5q8 8 14 15t10 12q7 10 12.5 21t8.5 23q4 12 5.5 25t1.5 28q0 23 -4 43.5t-12 37.5q-8 18 -20.5 32.5t-28.5 26.5v0z" />
    <glyph glyph-name="uniE639" unicode="&#xe639;" 
d="M205 -63h-107q-7 0 -11.5 5t-4.5 11q0 7 4.5 12t11.5 5h107q24 0 48.5 7t47.5 20t44 31.5t38 41.5q11 15 21 24.5t21 15.5q12 7 26 11.5t33 9.5q67 17 119.5 34.5t53.5 17.5q6 3 12 0t8 -9q3 -7 0 -13t-9 -8q-1 0 -54.5 -18t-121.5 -36q-18 -4 -30 -8t-21 -9t-16 -12.5
t-16 -18.5q-19 -26 -43 -47t-51 -36q-26 -15 -54 -23t-56 -8v0zM218 151q-6 -11 -11.5 -19t-11.5 -15q-6 -6 -12 -11t-14 -9q-11 -5 -22.5 -10.5t-22.5 -9.5t-19.5 -7.5t-14.5 -5.5q-12 -4 -15.5 -15.5t0.5 -23.5q5 -12 16.5 -22t29.5 -10h15.5h8.5h14.5h31.5q19 0 39 5.5
t38 15.5q19 9 36 22t32 28q-13 12 -27.5 23.5t-29.5 22.5t-30.5 21.5t-30.5 19.5v0zM260 162l103 167q-5 1 -10.5 2t-9.5 2q-5 2 -9.5 3.5t-8.5 2.5q-8 -15 -19 -32.5t-23 -36.5q-11 -19 -21.5 -37t-18.5 -34q-3 -5 -5 -10t-5 -9q7 -4 13.5 -8.5t13.5 -9.5v0zM566 407
q29 0 52 7.5t40 19.5q17 11 28 24.5t16 25.5h-37t-96 6q-5 1 -8 4.5t-3 8.5q1 5 4.5 8t8.5 2q18 -2 35.5 -3t35.5 -2q17 -1 35 -1h35q32 1 61 18.5t52 40.5t38 46.5t17 35.5q-28 -12 -60.5 -22t-67.5 -19t-71 -16t-71 -11h-1h-1q-4 0 -7.5 3t-3.5 8q-1 4 2 8t8 5
q28 3 56.5 8t56.5 11q28 7 54.5 14.5t52.5 15.5q26 9 47.5 27.5t37.5 42.5q17 23 27 49t12 49q-26 -20 -64 -40.5t-82 -39.5q-45 -19 -94 -35.5t-98 -27.5q-1 0 -1.5 -0.5t-1.5 -0.5q-4 0 -7 3t-4 7t1.5 8.5t7.5 5.5q35 8 70.5 18.5t68.5 23.5q34 13 65.5 27t58.5 29
q22 11 38 30t26 41t14 45t1 44q-13 -10 -52 -33.5t-93 -53.5q-54 -29 -119 -59.5t-129 -52.5q-26 -9 -43.5 -21t-26.5 -28t-8.5 -35.5t11.5 -44.5q9 -21 7 -42t-12 -37q-10 -17 -25.5 -28t-32.5 -13q-27 -3 -43.5 -11.5t-25.5 -18.5t-12 -20t-3 -16v-19.5v-17.5v-15v-11
q0 -3 -0.5 -6.5t-2.5 -7.5q70 -27 148 6l78 33v0zM601 357q-5 5 -9.5 10.5t-9.5 11.5q-28 -15 -53.5 -25t-48.5 -16q-23 -7 -43 -9.5t-37 -2.5l-113 -182q9 -6 18 -13l18 -14t17.5 -14t15.5 -14q14 19 27.5 29.5t28.5 17.5q16 7 35.5 12.5t46.5 14.5q27 8 50 15t41 15
q18 9 31 21.5t21 33.5q7 21 6 37t-7 29q-6 12 -16 22.5t-19 20.5v0z" />
    <glyph glyph-name="uniE63A" unicode="&#xe63a;" 
d="M512 960q-51 0 -101 -10t-97 -30q-46 -19 -88.5 -47.5t-78.5 -65.5l-58 38l-12 -231l206 105l-56 36q29 27 62.5 48t69.5 35q36 15 74.5 22t78.5 7q87 0 163 -33t133 -90t90 -133t33 -163t-33 -163t-90 -133t-133 -90t-163 -33t-163 33t-133 90t-90 133t-33 163h-93
q0 -106 40.5 -199t109.5 -163q70 -69 163 -109.5t199 -40.5t199 40.5t163 109.5q69 70 109.5 163t40.5 199t-40.5 199t-109.5 163q-70 69 -163 109.5t-199 40.5v0zM508 726q-9 0 -17 -3.5t-14 -9.5t-9.5 -14.5t-3.5 -17.5v-287l138 -142q3 -4 7 -6.5t8 -4.5l8 -2t9 -1
q4 0 8 1l8 2q4 2 7.5 4t7.5 6q6 6 9.5 14t3.5 17q0 8 -3 16.5t-9 15.5l-113 116v251q0 9 -3.5 17.5t-9.5 14.5t-14.5 9.5t-17.5 3.5v0z" />
    <glyph glyph-name="uniE63B" unicode="&#xe63b;" 
d="M512 936l-509 -510l95 -96l414 414l414 -414l95 96l-509 510v0zM149 302v-335h259v304h208v-304h259v335l-363 363l-363 -363v0z" />
    <glyph glyph-name="uniE63C" unicode="&#xe63c;" 
d="M466 345l-160 159l-34 -34q-7 -7 -10.5 -15.5t-3.5 -18.5q0 -9 3.5 -17.5t10.5 -15.5l98 -98v-51l-2 1l-157 156v260q0 13 -4.5 24.5t-13.5 19.5q-8 9 -19.5 13.5t-24.5 4.5h-63v-428v0l165 -164v-202h215v77v0v0v329v0zM878 733q-13 0 -24.5 -4.5t-20.5 -13.5
q-8 -8 -13 -19.5t-5 -24.5v-260l-157 -156l-2 -1v51l98 98q7 7 10.5 15.5t3.5 17.5q0 10 -3.5 18.5t-10.5 15.5l-34 34l-159 -159v-329v0v0v-77h215v202l164 164v428h-62v0zM673 583q0 18 -7 35t-19 29q-13 13 -29.5 20t-35.5 7t-35.5 -7t-29.5 -20q-12 -12 -19 -29t-7 -35
q0 -19 7 -36t19 -29q13 -13 29.5 -20t35.5 -7t35.5 7t29.5 20q12 12 19 29t7 36v0zM407 824q-19 0 -35.5 -7t-28.5 -19q-13 -13 -20 -29.5t-7 -35.5t7 -35.5t20 -29.5q12 -12 28.5 -19t35.5 -7t35.5 7t29.5 19q12 13 19.5 29.5t7.5 35.5t-7.5 35.5t-19.5 29.5
q-13 12 -29.5 19t-35.5 7v0zM596 774q19 0 35.5 7t29.5 20q12 12 19.5 29t7.5 35q0 19 -7.5 36t-19.5 29q-13 12 -29.5 19.5t-35.5 7.5t-35.5 -7.5t-28.5 -19.5q-13 -12 -20 -29t-7 -36q0 -18 7 -35t20 -29q12 -13 28.5 -20t35.5 -7v0z" />
    <glyph glyph-name="uniE63D" unicode="&#xe63d;" 
d="M450 527q4 11 4 18.5t-3 13.5q-3 5 -7.5 7.5t-8.5 2.5q-22 0 -46 -21t-46 -47q-22 -25 -40.5 -46.5t-28.5 -21.5q-9 0 -15 6.5t-6 14.5q0 10 11 26.5t26 33.5q15 16 30 31t22 23q24 22 50.5 41t56.5 33t62 22t66 8q25 0 49 -8.5t39 -30.5q14 -22 15 -59t-20 -94
l-113 -305q-3 -8 -7.5 -19.5t-9.5 -23.5q-4 -12 -6.5 -23.5t-2.5 -20.5q0 -8 4.5 -15t13.5 -7q18 0 41.5 20.5t45.5 45.5q23 25 41.5 46t26.5 21q6 0 12.5 -6.5t6.5 -17.5q0 -17 -31 -56.5t-80 -79.5q-49 -41 -110 -72t-120 -31q-21 0 -38.5 5t-30.5 16q-12 10 -19 26.5
t-7 38.5q0 28 8.5 64t19.5 69q11 34 21.5 60.5t14.5 36.5l109 275v0zM535 835q0 26 10 48.5t28 39.5t41 27t49 10q23 0 43 -7.5t34 -21.5q15 -14 23 -33.5t8 -43.5q0 -27 -10.5 -50t-28.5 -40q-17 -17 -41 -26t-50 -9q-24 0 -43.5 7.5t-33.5 21.5t-21.5 33.5t-7.5 43.5v0z
" />
    <glyph glyph-name="uniE63E" unicode="&#xe63e;" 
d="M512 960q-52 0 -98 -20t-80 -54q-35 -34 -54.5 -80t-19.5 -98q0 -37 10 -71.5t29 -64.5q18 -29 43.5 -52.5t56.5 -38.5v-84l3 -8l84 -84l-91 -91v-4l84 -84l-77 -80l110 -110l110 110v435q31 15 57 38.5t44 52.5q18 30 28 64.5t10 71.5q1 52 -18 98t-53 80t-80 54t-98 20
v0zM512 697q-16 0 -30.5 6t-24.5 17t-16 24.5t-6 28.5q0 17 6.5 31t17.5 24q10 11 24 16.5t29 5.5q16 0 30.5 -6t24.5 -17t16 -24.5t6 -29.5t-6 -30t-16 -24q-10 -11 -24.5 -16.5t-30.5 -5.5v0z" />
    <glyph glyph-name="uniE63F" unicode="&#xe63f;" 
d="M987 448q9 15 16 32t12 34q4 17 6.5 35.5t2.5 37.5q0 32 -7 64.5t-21 65.5q-15 33 -37 64.5t-52 61.5t-62 52t-64 37q-33 14 -65.5 21t-64.5 7q-19 0 -37.5 -2.5t-35.5 -6.5q-17 -5 -34 -12t-32 -16q-15 9 -32 16t-34 12q-18 4 -36 6.5t-37 2.5q-32 0 -64.5 -7t-65.5 -21
q-33 -15 -64.5 -37t-61.5 -52t-52 -61.5t-37 -64.5q-14 -33 -21 -65.5t-7 -64.5q0 -19 2.5 -37.5t6.5 -35.5q5 -17 12 -34t16 -32q-9 -15 -16 -32t-12 -34q-4 -17 -6.5 -35.5t-2.5 -37.5q0 -32 7 -64.5t21 -65.5q15 -33 37 -64.5t52 -61.5t61.5 -52t64.5 -37
q33 -14 65.5 -21t64.5 -7v0q19 0 37.5 2.5t35.5 6.5q18 5 34.5 12t31.5 16q15 -9 32 -16t34 -12q17 -4 35.5 -6.5t37.5 -2.5v0q32 0 64.5 7t65.5 22q33 14 64.5 36t61.5 52t52 61.5t37 64.5q14 33 21 65.5t7 64.5q0 19 -2.5 37.5t-6.5 35.5q-5 17 -12 34t-16 32v0zM651 900
q25 0 51.5 -6t53.5 -18q28 -12 55 -30.5t53 -45.5q27 -26 45.5 -53t30.5 -55q12 -27 18 -53.5t6 -51.5q0 -12 -1.5 -23t-3.5 -22q-2 -10 -5 -20.5t-8 -20.5v0.5v0.5v0v0q-10 74 -42.5 139.5t-82.5 115.5t-115.5 83t-139.5 42v0v0h-0.5h-0.5q10 5 20.5 8t20.5 5q11 2 22 3.5
t23 1.5v0zM774 175l-104 101l1 2q35 34 52 77.5t17 88.5q0 46 -17 89.5t-51 78.5l103 102q56 -56 83.5 -126.5t27.5 -143.5q-1 -73 -29 -143t-83 -126v0zM160 800q26 27 53 45.5t55 30.5q27 12 53.5 18t51.5 6q12 0 23 -1.5t22 -3.5q10 -2 20.5 -5t20.5 -8h-0.5h-0.5v0v0
q-74 -9 -139.5 -42t-115.5 -83t-83 -115.5t-42 -139.5v0v0v-0.5v-0.5q-5 10 -8 20.5t-5 20.5q-2 11 -3.5 22t-1.5 23q0 25 6 51.5t18 53.5q12 28 30.5 55t45.5 53v0zM354 617l-2 -1q-34 -34 -51.5 -77.5t-17.5 -89.5q0 -45 17 -88.5t51 -78.5l-103 -102q-55 56 -82.5 126.5
t-27.5 143.5t28 143t84 126l104 -102v0zM373 -4q-25 0 -51.5 6t-53.5 18q-28 12 -55 30.5t-53 45.5q-27 26 -45.5 53t-30.5 55q-12 27 -18 53.5t-6 51.5q0 12 1.5 23t3.5 22q2 10 5 20.5t8 20.5v-0.5v-0.5v0v0q9 -74 42 -139t83 -116q50 -50 115.5 -82.5t139.5 -42.5v0v0
h0.5h0.5q-10 -5 -20.5 -8t-20.5 -5q-11 -2 -22 -3.5t-23 -1.5v0zM511 273q-18 0 -35 3.5t-32 9.5q-16 7 -30 16.5t-27 22.5q-12 12 -21.5 26.5t-15.5 29.5q-7 16 -10 32.5t-3 34.5v0v1v0q0 36 14 68t38 55q23 24 55 38t68 13h2q17 0 34 -3.5t32 -9.5q16 -7 30 -16.5
t27 -22.5q12 -12 21.5 -26.5t15.5 -29.5q7 -16 10 -32.5t3 -34.5v-1q0 -36 -14 -68t-37 -55q-24 -24 -56 -38t-68 -13h-1v0zM864 96q-26 -27 -53 -45.5t-55 -30.5q-27 -12 -53.5 -17.5t-51.5 -6.5q-12 1 -23 2t-22 3q-10 2 -20.5 5t-20.5 8h0.5h0.5v0v0q74 10 139.5 42.5
t115.5 82.5t83 115.5t42 139.5v0v0v0.5v0.5q5 -10 8 -20.5t5 -20.5q2 -11 3.5 -22t1.5 -23q0 -25 -6 -51.5t-18 -53.5q-12 -28 -30.5 -55t-45.5 -53v0z" />
    <glyph glyph-name="uniE640" unicode="&#xe640;" 
d="M513 958q-63 0 -118.5 -24t-96.5 -65t-65 -96.5t-24 -118.5q0 -126 152 -422l152 -296l152 296t152 422q0 63 -24 118.5t-65 96.5t-96.5 65t-118.5 24v0zM513 562q-19 0 -36 7t-29 20q-13 12 -20 29t-7 36t7 36t20 29q12 13 29 20t36 7t36 -7t29 -20q13 -12 20.5 -29
t7.5 -36t-7.5 -36t-20.5 -29q-12 -13 -29 -20t-36 -7v0z" />
    <glyph glyph-name="uniE641" unicode="&#xe641;" 
d="M865 470h-52v173q0 32 -6 62.5t-17 59.5q-11 28 -27 53.5t-36 46.5q-20 22 -44.5 39.5t-51.5 29.5q-27 13 -57 19.5t-62 6.5t-62 -6.5t-57 -19.5q-27 -12 -51.5 -29.5t-44.5 -39.5q-20 -21 -36 -46.5t-27 -53.5q-11 -29 -17 -59.5t-6 -62.5v-173h-52q-8 0 -15 -3t-13 -8
q-5 -6 -8 -13t-3 -15v-456q0 -8 3 -15t8 -13q6 -5 13 -8t15 -3h706q8 0 15 3t13 8q5 6 8 13t3 15v456q0 8 -3 15t-8 13q-6 5 -13 8t-15 3v0zM354 643q0 18 3.5 35.5t9.5 33.5t15 30t20 26q11 11 23.5 20.5t26.5 15.5t29 9.5t31 3.5t31 -3.5t29 -9.5t26.5 -15.5t23.5 -20.5
q11 -12 20 -26t15 -30t9.5 -33.5t3.5 -35.5v-173h-316v173v0z" />
    <glyph glyph-name="uniE642" unicode="&#xe642;" 
d="M512 331q-14 0 -26.5 -5t-21.5 -15q-10 -9 -15.5 -21.5t-5.5 -28.5q0 -13 5 -25.5t14 -22.5t22 -15.5t28 -5.5q14 0 26.5 5t21.5 15q10 9 15.5 21.5t5.5 27.5q0 16 -5.5 28.5t-15.5 21.5q-9 10 -21.5 15t-26.5 5v0zM764 470v227q0 27 -4.5 53t-13.5 50q-10 23 -23.5 44
t-31.5 39q-16 18 -36.5 32t-43.5 24t-48 15.5t-51 5.5t-51 -5.5t-48 -15.5t-43.5 -25t-36.5 -34q-17 -18 -30.5 -39t-22.5 -45q-10 -24 -15 -50t-5 -53v-223q-18 -21 -32.5 -44.5t-24.5 -50.5q-10 -26 -15 -54.5t-5 -59.5q0 -67 25.5 -126t69.5 -103q45 -45 104 -70.5
t126 -25.5q68 0 127 25.5t103 70.5q45 44 70.5 103t25.5 126q1 31 -3 59.5t-13 54.5q-9 27 -22.5 50.5t-31.5 44.5v0zM355 232h-73v59h73v-59v0zM541 31h-58v73h58v-73v0zM512 144q-25 0 -46 9.5t-37 24.5q-16 16 -25 37.5t-9 45.5q0 25 9 46.5t25 37.5q16 15 37 24.5
t46 9.5t46 -9.5t37 -24.5q16 -16 25 -37.5t9 -46.5q0 -23 -9 -44t-25 -37t-37 -26t-46 -10v0zM483 422v74h58v-74h-58v0zM644 561q-15 7 -31 12.5t-32 9.5q-17 4 -34 6t-35 2t-35 -2t-34 -6q-16 -4 -32 -9.5t-31 -12.5v136q0 15 3 29t8 27t12.5 24.5t17.5 21.5
q9 10 19.5 17.5t21.5 12.5t23.5 7.5t26.5 2.5t26.5 -2.5t23.5 -7.5t21.5 -12.5t19.5 -17.5q10 -10 17.5 -21.5t12.5 -24.5t8 -27t3 -29v-136v0zM746 232h-73v59h73v-59v0z" />
    <glyph glyph-name="uniE643" unicode="&#xe643;" 
d="M585 635l154 212l-81 113h-292l-81 -117l154 -208q-60 -13 -112 -44.5t-89 -77.5q-38 -45 -59.5 -102t-21.5 -120q0 -73 28 -137.5t76 -112.5q48 -49 112.5 -77t138.5 -28q73 0 137.5 27.5t112.5 75.5t76.5 113t28.5 139q0 63 -21.5 119.5t-59.5 101.5q-37 45 -89 77
t-112 46v0zM549 642l43 183h92l-135 -183v0zM512 645l-44 180h88l-44 -180v0zM647 912l37 -47h-73l36 47v0zM614 923l-36 -47l-37 47h73v0zM549 861h-74l37 48l37 -48v0zM479 923l-36 -47l-37 47h73v0zM377 912l36 -47h-73l37 47v0zM432 828l43 -183l-135 183h92v0zM512 2
q-59 0 -111 22.5t-91 60.5q-38 39 -60.5 91t-22.5 111t22.5 111t60.5 91q39 38 91 60.5t111 22.5t111 -22.5t91 -60.5q38 -39 60.5 -91t22.5 -111t-22.5 -111t-60.5 -91q-39 -38 -91 -60.5t-111 -22.5v0z" />
    <glyph glyph-name="uniE644" unicode="&#xe644;" 
d="M792 627l44 74l-72 48l8 86l-85 11l-31 81l-82 -27l-62 60l-62 -60l-82 27l-31 -81l-85 -11l8 -86l-72 -48l44 -74l-44 -74l72 -47l-8 -86l85 -12l31 -81l82 27l62 -60l62 60l82 -27l31 81l85 12l-8 86l72 47l-44 74v0zM590 287l-37 -35l-41 -40l-41 40l-37 35l-96 -32
v-319l171 108l177 -108v319l-96 32v0z" />
    <glyph glyph-name="uniE645" unicode="&#xe645;" 
d="M1024 759q0 -11 -1.5 -22t-5.5 -22q-3 -11 -8.5 -21.5t-12.5 -20.5q-7 -11 -15 -20.5t-16 -17.5q-9 -9 -18.5 -17t-20.5 -15q-53 -38 -96.5 -68t-77.5 -54q-33 -23 -56.5 -39t-36.5 -25q-3 -2 -9 -6.5t-15 -11.5q-10 -6 -17.5 -11.5t-13.5 -10.5q-6 -4 -13.5 -8.5
t-16.5 -9.5q-4 -3 -8.5 -5t-8.5 -4t-8 -3.5t-8 -3.5q-8 -2 -15 -3.5t-13 -1.5h-1q-7 0 -14 1.5t-15 3.5q-4 2 -8 3.5t-8 3.5t-8.5 4t-8.5 5q-9 5 -16 9.5t-14 8.5q-6 5 -13.5 10.5t-16.5 11.5q-10 7 -16 11.5t-9 6.5q-13 9 -28.5 20t-34.5 24t-40.5 28t-46.5 32
q-24 17 -43.5 30.5t-34.5 23.5q-14 10 -24 17t-15 11q-8 5 -17 12.5t-17 15.5t-16.5 17.5t-16.5 19.5q-7 11 -13 21t-10 20t-6 19t-2 18q0 12 1.5 22t4.5 19q3 10 7.5 18t10.5 16q6 7 13 12.5t16 9.5q8 4 17.5 5.5t20.5 1.5h842q9 0 17.5 -1.5t16.5 -4.5q8 -4 15.5 -9
t14.5 -11q7 -7 12 -14.5t8 -15.5q4 -8 5.5 -17t1.5 -18v0zM967 541q8 6 15.5 12t15.5 12q7 6 13.5 12.5t12.5 13.5v-454q0 -9 -1.5 -18t-5.5 -17q-3 -8 -8 -15.5t-12 -13.5q-6 -7 -13.5 -12t-15.5 -8q-8 -4 -17 -5.5t-18 -1.5h-842q-9 0 -17.5 1.5t-16.5 5.5q-9 3 -16 8
t-14 12q-7 6 -12 13.5t-8 15.5q-4 8 -5.5 17t-1.5 18v454q6 -7 13 -13.5t14 -12.5q7 -7 15 -12.5t16 -11.5q52 -35 95.5 -65t78.5 -54q36 -25 63 -44.5t47 -33.5q8 -6 15.5 -11.5t13.5 -9.5q7 -5 13 -9t11 -7q5 -4 11 -7t12 -7q7 -3 14.5 -6.5t16.5 -7.5q8 -3 16 -5.5
t16 -4.5t15.5 -3t15.5 -1h1q7 0 14.5 1t15.5 3t16 4.5t16 5.5q9 4 16.5 7.5t14.5 6.5q7 4 12.5 7t11.5 7q5 3 10.5 7t12.5 9q7 4 14 9.5t15 11.5q25 18 55 39t65 46q36 24 77 52t88 60v0v0z" />
    <glyph glyph-name="uniE646" unicode="&#xe646;" 
d="M934 162h-844v572h448v84h-538v-740h1024v257h-90v-173v0zM717 818l100 -94l-240 -226l109 -103l240 226l98 -92v289h-307v0z" />
    <glyph glyph-name="uniE647" unicode="&#xe647;" 
d="M874 810q-37 38 -80 66t-89 47q-47 18 -95.5 27.5t-97.5 9.5t-97.5 -9.5t-95.5 -27.5q-46 -19 -89 -47t-80 -66q-38 -38 -66 -81.5t-47 -89.5q-19 -47 -28 -96t-9 -99q0 -48 9.5 -96.5t28.5 -94.5q19 -45 47 -87.5t65 -79.5t80 -65.5t89 -46.5q47 -19 95.5 -28.5
t97.5 -9.5v0q49 0 98 9.5t95 28.5q46 18 89 46.5t80 65.5t65.5 80t46.5 89q19 47 28.5 95.5t9.5 97.5t-9.5 97.5t-28.5 95.5q-18 46 -46.5 89t-65.5 80v0zM812 148q-31 -32 -66.5 -55t-73.5 -39q-38 -15 -78.5 -23t-81.5 -8t-81.5 8t-78.5 23q-38 16 -73.5 39t-66.5 55
q-31 30 -54.5 65.5t-39.5 73.5q-15 37 -23 77t-8 80q0 42 7.5 83t23.5 79q15 39 38.5 75t55.5 67q31 32 66.5 55t73.5 39q38 15 78.5 23t81.5 8t81.5 -8t78.5 -23q38 -16 73.5 -39t66.5 -55q32 -31 55 -66.5t39 -73.5q15 -38 23 -78.5t8 -81.5t-8 -81.5t-23 -78.5
q-16 -38 -39 -73.5t-55 -66.5v0zM839 546q-6 20 -14.5 39t-18.5 37q-11 18 -24 35t-29 32q-4 5 -10.5 5t-10.5 -5q-5 -4 -5 -10.5t5 -10.5q14 -14 25.5 -29t21.5 -32q9 -16 17 -33t13 -34q-7 -4 -13 -9.5t-11 -12.5q-4 -7 -6.5 -15t-2.5 -17q0 -10 3.5 -19.5t9.5 -17.5
t14.5 -13t18.5 -8q-2 -27 -8.5 -54t-17.5 -52q-11 -26 -27 -49.5t-37 -44.5q-23 -23 -49 -40t-54 -28t-57.5 -17t-59.5 -6t-59.5 6t-57.5 17t-54 28t-49 40q-2 3 -5 6l-6 6q3 4 4.5 9.5t1.5 10.5q0 9 -3 16.5t-9 13.5q-6 5 -13.5 8.5t-15.5 3.5q-2 0 -4 -0.5t-4 -0.5
q-7 13 -12.5 27t-10.5 28q-4 14 -7 28t-5 29q10 2 18 7.5t14 13.5q6 7 9.5 16.5t3.5 20.5q0 9 -2.5 17.5t-7.5 15.5t-12 13t-15 9q4 15 9 29t12 28q7 13 15 26.5t17 25.5l54 -53q-11 -15 -18.5 -31.5t-13.5 -33.5q-5 -16 -7.5 -33.5t-2.5 -35.5q0 -23 4.5 -45t12.5 -44
q9 -21 22 -41t30 -37q8 -8 16.5 -15t17.5 -13t18 -11t19 -10v-0.5v-1.5q0 -12 4.5 -23t12.5 -19q9 -8 19.5 -13t23.5 -5q10 0 19 3.5t17 8.5q7 6 12.5 14t8.5 17q20 2 39.5 7t38.5 13q18 9 35.5 21t32.5 27q17 17 30 37t22 41q9 22 13 44t4 45t-4 45.5t-13 43.5t-22 41
t-30 37q-4 4 -10.5 4t-10.5 -4q-5 -4 -5 -10.5t5 -10.5q15 -15 26 -32.5t19 -35.5q7 -19 11 -38.5t4 -39.5t-4 -39.5t-11 -37.5q-8 -19 -19 -36t-26 -32q-13 -13 -28 -23.5t-30 -17.5q-16 -8 -32.5 -12.5t-33.5 -6.5q-2 10 -7.5 18.5t-13.5 15.5q-7 6 -17 9.5t-20 3.5
q-8 0 -15.5 -2t-14.5 -6q-6 -4 -11.5 -9t-9.5 -11q-8 3 -15.5 7.5t-15.5 9.5q-7 5 -14 11t-13 13q-16 15 -27 32t-19 36q-7 18 -11 37.5t-4 39.5q0 15 2 29.5t7 28.5q4 14 10 27.5t14 26.5l111 -110h-0.5h-0.5q0 -13 5 -24t13 -19t19 -12.5t23 -4.5q13 0 24 4.5t19 12.5
t12.5 19t4.5 24q0 11 -4 21.5t-12 18.5q-7 8 -17.5 13t-21.5 6l-219 219q-6 6 -14 9t-17 3q-8 0 -16 -3t-14 -9q-7 -7 -10 -15t-3 -16q0 -9 3 -17t10 -14l9 -9q-12 -14 -21.5 -29.5t-16.5 -31.5q-8 -16 -14 -32.5t-10 -33.5q-11 -1 -20.5 -6.5t-16.5 -13.5q-7 -7 -11 -17.5
t-4 -21.5t3 -20t9 -17t14 -13t18 -8q1 -17 4.5 -33.5t8.5 -32.5t11.5 -31.5t14.5 -30.5q-3 -5 -5.5 -11.5t-2.5 -13.5q0 -8 3.5 -15.5t8.5 -13.5q6 -6 13.5 -9t16.5 -3q3 0 6 0.5t6 1.5q3 -4 6.5 -7.5l6.5 -6.5q25 -25 53.5 -44t59.5 -31q31 -13 63 -19t65 -6t65.5 6
t62.5 19q31 12 59.5 31t53.5 44q23 23 41 49t30 55q13 28 20 58t9 60q9 3 17 8.5t14 12.5q5 8 8.5 17t3.5 19q0 12 -4.5 23t-12.5 19t-18 13t-22 5v0z" />
    <glyph glyph-name="uniE648" unicode="&#xe648;" 
d="M1023 448l-563 465v-303h-459v-324h459v-303z" />
    <glyph glyph-name="uniE649" unicode="&#xe649;" 
d="M764 -64h256v256h-91v15q0 15 -2.5 30.5t-7.5 30.5q-5 16 -11.5 31t-15.5 28q-8 14 -17.5 27t-20.5 24t-23.5 20.5t-25.5 16.5l-169 88q-8 4 -16 10t-16 14t-15.5 17.5t-14.5 20.5q-7 10 -11.5 20.5t-7.5 21.5q-4 11 -5 22t-1 20v55h91v256h-256v-256h91v-55
q0 -9 -1.5 -19.5t-5.5 -21.5q-3 -10 -8 -21l-10 -22q-6 -10 -13 -19t-16 -18q-8 -8 -16.5 -14.5t-16.5 -10.5l-169 -88q-13 -7 -25.5 -16.5t-23.5 -20.5t-20.5 -24t-17.5 -27q-9 -13 -15.5 -27.5t-11.5 -29.5t-7.5 -31t-2.5 -32v-15h-91v-256h256v256h-88v15q0 9 2 19.5
t5 20.5q4 11 8.5 22t9.5 22q6 9 13.5 18.5t15.5 17.5q8 9 16.5 15.5t17.5 10.5l168 88q7 4 13.5 8.5t13.5 9.5q7 6 14 11t14 11v-289h-92v-256h256v256h-91v289q5 -6 11.5 -11t13.5 -11q6 -5 14 -9.5t16 -8.5l168 -88q8 -4 16.5 -10t15.5 -14q8 -8 15.5 -17.5t14.5 -20.5
q7 -10 12 -20.5t8 -21.5t4.5 -22t1.5 -20v-15h-95v-256h-8z" />
    <glyph glyph-name="uniE64A" unicode="&#xe64a;" 
d="M0 893v-890q0 -13 4.5 -24t13.5 -19q8 -8 19 -12.5t23 -4.5h74v1010h-74q-12 0 -23 -4.5t-19 -12.5q-9 -8 -13.5 -19t-4.5 -24v0zM206 -57h679v1010h-679v-1010v0zM287 287q3 9 9.5 15t15.5 10q8 4 17.5 7t18.5 6q10 4 20 8.5t21 9.5q10 4 20 8.5t20 8.5q6 1 11.5 2.5
t11.5 3.5q3 2 6.5 6.5t5.5 10.5q3 5 5.5 10.5t4.5 9.5l11 2q-2 10 -7 13.5t-7 10.5q-1 5 -1.5 10.5t-0.5 10.5q-1 6 -1.5 11t-1.5 11q0 -1 -5 0.5t-6 1.5q-5 4 -8 11.5t-4 15.5q-1 9 -2 17.5t-1 14.5q0 5 4 10t2 14q-6 27 -5 47t7 34t16 23t23 13q9 3 21.5 7.5t26.5 6.5
q15 2 30.5 -0.5t31.5 -11.5l10 -10l17 -3q6 -3 9.5 -11.5l3.5 -8.5q4 -14 4.5 -19t0.5 -19q0 -5 -2 -23t-1 -26q0 -6 1.5 -8t4.5 -7q2 -5 3 -10t1 -10q0 -6 -1 -11t-1 -9q-2 -5 -3.5 -11t-4.5 -10t-8.5 -6t-7.5 -7q-2 -3 -3 -7.5t-1 -9.5q0 -4 -0.5 -8.5t-1.5 -8.5
q-3 -9 -8.5 -13t-5.5 -15q3 -1 7 -1.5t7 -0.5q2 -4 4.5 -9.5t5.5 -10.5q3 -6 6 -10.5t6 -6.5q6 -2 11.5 -3.5t11.5 -2.5q10 -4 20 -8.5t21 -8.5q10 -5 20 -9.5t20 -8.5q9 -4 18.5 -7t18.5 -6q8 -4 14.5 -10t9.5 -15q0 -7 0.5 -17t0.5 -21t0.5 -22t-0.5 -20h-519v20v22
t0.5 21t0.5 17v0zM932 953v-231h92v231h-92v0zM932 429h92v232h-92v-232v0zM932 137h92v232h-92v-232v0z" />
    <glyph glyph-name="uniE64B" unicode="&#xe64b;" 
d="M851 781q-11 11 -25 16.5t-28 5.5q-15 0 -29 -5.5t-25 -16.5t-16.5 -25t-5.5 -28q0 -15 5.5 -29t16.5 -25v0q26 -25 44.5 -53.5t31.5 -60.5q13 -31 19 -63.5t6 -65.5t-6 -66t-19 -64t-31.5 -59.5t-44.5 -54.5q-25 -25 -54 -44t-60 -31q-31 -13 -63.5 -19.5t-65.5 -6.5
t-66 6.5t-64 19.5q-31 12 -59.5 31t-54.5 44q-25 26 -44 54.5t-31 59.5q-13 31 -19.5 64t-6.5 66t6.5 65.5t19.5 63.5q12 32 31 60.5t44 53.5q11 11 16.5 25t5.5 29q0 14 -5.5 28t-16.5 25t-24.5 16.5t-28.5 5.5q-14 0 -28 -5.5t-25 -16.5q-36 -36 -63.5 -77.5t-45.5 -86.5
t-27 -92t-9 -94q0 -48 9 -95t27 -91q18 -45 45.5 -86.5t63.5 -77.5t77.5 -63.5t86.5 -45.5q44 -18 91 -27t95 -9v0q47 0 94 9t92 27t86.5 45.5t77.5 63.5t63 77.5t45 86.5q19 44 28 91t9 95q0 47 -9 94t-28 92q-18 45 -45 86.5t-63 77.5v0zM501 356q15 0 29 5.5t24 16.5
q10 10 16 23.5t6 29.5v454q0 15 -6 29t-16 24t-24 16t-29 6q-16 0 -29.5 -6t-23.5 -16q-11 -10 -16.5 -24t-5.5 -29v-454q0 -16 5.5 -29.5t16.5 -23.5q10 -11 23.5 -16.5t29.5 -5.5v0z" />
    <glyph glyph-name="uniE64C" unicode="&#xe64c;" 
d="M837 570v-87h-453q-13 0 -26 -1.5t-27 -5.5q-13 -3 -27 -8t-28 -11t-26.5 -13.5t-23.5 -15.5t-21 -17t-18 -19l-186 -219q0 1 -0.5 2.5t-0.5 4.5v3.5v2.5v524q0 12 2.5 23.5t6.5 22.5q5 11 11.5 21t15.5 19t19 15.5t21 11.5q10 4 22 6.5t24 2.5h174q13 0 24.5 -2.5
t22.5 -6.5q11 -5 21 -11.5t18 -15.5q9 -9 16 -19t11 -21q5 -11 7 -22.5t2 -23.5v-18h297q13 0 24.5 -2t22.5 -7q10 -4 20 -11t19 -16t16 -19t11 -20q5 -11 7 -22.5t2 -24.5v0zM1024 383q0 -5 -1 -9t-3 -9q-2 -4 -5.5 -9t-7.5 -9l-183 -216q-6 -7 -13 -13.5t-15 -12.5
t-17.5 -11t-20.5 -10q-10 -5 -20.5 -8.5l-19.5 -6.5q-10 -2 -19.5 -3.5t-18.5 -1.5h-593q-9 0 -17.5 2t-15.5 5q-7 4 -10.5 10t-3.5 14q0 4 1 8.5t3 8.5q2 5 5 9.5t8 9.5l183 216q6 7 13 13t15 12t17.5 11.5t20.5 10.5q10 5 20 8.5t20 5.5q10 3 19.5 4t18.5 1h592
q5 0 9.5 -0.5t8.5 -1.5l8 -2t8 -3q7 -3 10.5 -9t3.5 -14v0z" />
    <glyph glyph-name="uniE64D" unicode="&#xe64d;" 
d="M726 741q0 -46 -17.5 -86t-46.5 -69q-30 -30 -70 -47.5t-85 -17.5q-46 0 -86 17.5t-70 47.5q-29 29 -46.5 69t-17.5 86q0 45 17.5 85t46.5 70q30 30 70 47t86 17q45 0 85 -17t70 -47q29 -30 46.5 -70t17.5 -85v0zM627 442h-241q-67 0 -125.5 -25t-101.5 -69
q-44 -44 -69 -102.5t-25 -124.5v-53q47 -31 99 -55.5t108 -41.5t114.5 -26t120.5 -9q61 0 119.5 9t114.5 26t108 41.5t99 55.5v53q0 66 -25 124.5t-69 102.5q-43 44 -101.5 69t-125.5 25v0z" />
    <glyph glyph-name="uniE64E" unicode="&#xe64e;" 
d="M765 960h-494q-10 0 -19 -4t-16 -11q-7 -6 -11 -15.5t-4 -19.5v-924q0 -10 4 -19.5t11 -15.5q7 -7 16 -11t19 -4h494q11 0 20 4t16 11q6 6 10 15.5t4 19.5v924q0 10 -4 19.5t-10 15.5q-7 7 -16 11t-20 4v0zM413 9h-109v109h109v-109v0zM413 169h-109v108h109v-108v0z
M576 9h-109v109h109v-109v0zM576 169h-109v108h109v-108v0zM472 357q0 10 3.5 18.5t10.5 14.5q6 6 14.5 9.5t17.5 3.5q10 0 18.5 -3.5t14.5 -9.5t10 -14.5t4 -18.5q0 -9 -4 -17.5t-10 -15.5q-6 -6 -14.5 -9.5t-18.5 -3.5q-9 0 -17.5 3.5t-14.5 9.5q-7 7 -10.5 15.5
t-3.5 17.5v0zM737 9h-109v109h109v-109v0zM737 169h-109v108h109v-108v0zM737 425h-433v455h433v-455v0z" />
    <glyph glyph-name="uniE64F" unicode="&#xe64f;" 
d="M512 960q-106 0 -199.5 -40.5t-162.5 -109.5q-70 -69 -110 -162.5t-40 -199.5t40 -199.5t110 -162.5q69 -69 162.5 -109.5t199.5 -40.5v512h512q0 106 -40 199.5t-110 162.5q-69 69 -162.5 109.5t-199.5 40.5v0z" />
    <glyph glyph-name="uniE650" unicode="&#xe650;" 
d="M984 955q-13 -4 -25.5 -9.5t-24.5 -11.5t-24 -13t-22 -15l-193 -163l-592 125l-72 -71l455 -260l-228 -277l-181 56l-77 -72l172 -88l-15 -18q-4 -3 -5 -9t-1 -12q0 -7 1.5 -13t4.5 -10q3 -3 9 -4.5t13 -1.5t13 1.5t9 4.5l19 15l87 -173l72 77l-55 181l277 224l254 -446
l71 72l-122 580l166 199q8 11 15 22.5t13 23.5q6 13 11.5 25.5t10.5 24.5q4 12 4 21t-5 14t-14 5.5t-21 -4.5v0zM157 93v0.5v0.5q-1 0 -1 0.5v0.5l1 -2v0z" />
    <glyph glyph-name="uniE651" unicode="&#xe651;" 
d="M896 521q-5 4 -11.5 8t-13.5 7t-14.5 5t-15.5 2q-5 0 -10.5 -1t-11.5 -6v1.5v1.5v0v0l4 22q1 7 0.5 18t-7.5 22q-6 11 -21.5 21.5t-44.5 15.5q-6 0 -11.5 2t-10.5 2q-13 0 -23 -3.5t-17 -9.5q-8 -7 -12.5 -16.5t-6.5 -21.5v0v40q0 8 -3 17.5t-11 18.5q-8 8 -21.5 13.5
t-33.5 5.5h-6h-9q-26 -3 -41 -10.5t-23 -17.5q-7 -9 -8.5 -19.5t-0.5 -18.5v-4q-3 -8 -4 -10t-3 -4v82.5v91.5v75v36v0v0q0 16 -6.5 30t-17.5 25q-10 10 -24 16t-29 6h-0.5h-3.5q-8 0 -15.5 -2t-14.5 -6q-7 -3 -13 -7.5t-12 -10.5q-5 -5 -9 -12t-7 -14t-4.5 -14.5
t-1.5 -14.5l4 -362q0 -33 -0.5 -59.5t-2.5 -46.5q-1 -21 -3 -34.5t-5 -20.5l-2 0.5t-2 3.5l-106 84q-5 4 -11 7.5t-13 5.5q-6 3 -13 4t-14 1q-8 0 -16 -2t-16 -5q-7 -4 -14 -9.5t-12 -12.5q-6 -5 -9.5 -12t-5.5 -14q-2 -8 -3 -16t-1 -16q0 -9 2 -16.5t6 -14.5t9.5 -13
t12.5 -11l183 -158q16 -28 32.5 -50.5t31.5 -38.5q16 -16 28.5 -26.5t20.5 -15.5v-103h369v110l110 344l4 11q5 22 9 40.5t4 33.5q0 16 -6.5 28.5t-21.5 21.5v0z" />
    <glyph glyph-name="uniE652" unicode="&#xe652;" 
d="M1024 409v-256q0 -4 -1.5 -7.5t-4.5 -6.5t-6.5 -4.5t-7.5 -1.5h-138v-98q0 -7 -1 -12.5t-3 -10.5q-2 -6 -5 -10.5t-8 -8.5q-4 -5 -9 -8t-10 -5t-11 -3.5t-12 -1.5h-590q-6 0 -12 1.5t-11 3.5t-10 5t-9 8q-4 4 -7.5 8.5t-5.5 10.5q-2 5 -3 10.5t-1 12.5v98h-138
q-4 0 -7.5 1.5t-6.5 4.5t-4.5 6.5t-1.5 7.5v256q0 12 2 23t7 22q4 10 10.5 19.5t15.5 18.5t18.5 15.5t19.5 10.5q11 4 22 6.5t23 2.5h40v335q0 6 1 11.5t3 10.5q2 6 5.5 10.5t7.5 8.5q4 5 9 8t10 5t11 3.5t12 1.5h413q6 0 12.5 -1t13.5 -2q7 -2 14 -4.5t14 -5.5
q8 -3 14.5 -6t12.5 -7t11 -8t9 -8l94 -94q4 -4 8 -9t8 -11q3 -6 6.5 -12.5t6.5 -13.5q3 -8 5.5 -15t3.5 -14q2 -7 2.5 -13t0.5 -13v-157h40q12 0 23 -2.5t22 -6.5q10 -4 20 -10.5t18 -15.5q9 -9 15.5 -18.5t10.5 -19.5q5 -11 7 -22t2 -23v0zM236 448h552v236h-99
q-6 0 -11.5 1.5t-11.5 3.5q-5 2 -9.5 5t-9.5 8q-4 4 -7 8.5t-6 10.5q-2 5 -3 10.5t-1 11.5v99h-394v-394v0zM236 54h552v158h-552v-158v0zM934 381q5 6 8 13t3 15t-3 14.5t-8 12.5q-6 6 -13 9t-15 3t-15 -3t-13 -9t-9 -12.5t-3 -14.5t3 -15t9 -13t13 -9t15 -3t15 3t13 9v0z
" />
    <glyph glyph-name="uniE653" unicode="&#xe653;" 
d="M991 64q-5 -5 -12 -9.5t-14 -6.5q-8 -3 -16 -4.5t-16 -1.5h-74.5h-74.5h-74h-74q-12 0 -24 4t-22 11q-11 7 -18.5 17.5t-11.5 22.5q-3 5 -4.5 10.5t-2.5 11.5q-1 5 -1 10.5v11.5v99v100v100v99q0 22 3.5 44.5t9.5 44.5q7 21 16.5 41.5t21.5 38.5q21 31 48 57t58 44
q32 19 67 29.5t72 11.5q7 0 14 0.5t13 0.5q7 0 13 -1t12 -3q7 -3 13 -7.5t10 -11.5q5 -6 8.5 -13.5t4.5 -15.5q2 -4 2 -8.5t-1 -9.5t-2 -9.5t-2 -8.5q-3 -7 -8.5 -13t-11.5 -11q-7 -5 -14 -8.5t-14 -4.5h-10.5h-11.5q-18 -1 -35 -5.5t-33 -11.5q-15 -6 -29.5 -16t-26.5 -22
q-13 -11 -22.5 -24.5t-16.5 -28.5t-11 -31t-5 -33v-10.5v-10.5v-10.5v-8.5h63h63h63.5h62.5q8 0 17 -2t17 -5q8 -4 15.5 -8.5t12.5 -10.5q6 -5 10.5 -12t8.5 -14q3 -8 5 -16t2 -16v-74v-74v-74v-75q-1 -10 -4 -20.5t-7 -19.5t-9.5 -16.5t-12.5 -12.5v0zM410 46
q-5 -2 -9 -2.5t-8 -0.5q-4 -1 -8 -1h-8h-66h-66h-66h-66h-13t-14 1q-6 0 -12 0.5t-12 2.5q-9 2 -18 7t-16 11q-7 7 -12.5 15t-8.5 18q-2 4 -3.5 8t-2.5 9q-1 4 -1 9v10v96v96v96v96v26t1 26t3.5 26t6.5 25q7 25 18.5 48.5t26.5 45.5t33 41.5t39 36.5q21 15 44 26.5t47 19.5
q25 8 51 12t52 4q5 0 10 -1t9 -2q5 -2 9 -5t8 -7q9 -5 14.5 -13t7.5 -17q3 -10 3 -20t-3 -19q-2 -7 -6.5 -13t-9.5 -11t-11 -8t-13 -5q-5 -2 -13 -2.5t-16 -0.5q-15 0 -30.5 -3.5t-30.5 -9.5t-28.5 -14t-24.5 -17q-13 -11 -24.5 -25t-20.5 -31q-9 -16 -15 -33.5t-9 -35.5
q-1 -6 -1.5 -12.5t0.5 -12.5q0 -6 0.5 -12.5t0.5 -13.5h58.5h58.5h59h58h11.5h10.5q5 -1 10.5 -1.5t11.5 -1.5q11 -3 20.5 -8.5t16.5 -13.5q8 -7 13.5 -16.5t7.5 -20.5q2 -4 2.5 -8.5t1.5 -9.5v-9.5v-9.5v-65v-66v-66v-66v-11v-13q-1 -6 -1.5 -12t-2.5 -11q-2 -10 -7.5 -18
t-12.5 -15t-16 -12.5t-18 -9.5v0z" />
    <glyph glyph-name="uniE654" unicode="&#xe654;" 
d="M322 601q-66 1 -124 -17.5t-102 -50.5q-43 -33 -69 -77.5t-27 -95.5q0 -18 2.5 -35.5t8.5 -33.5t14 -31.5t19 -30.5q38 -48 17 -111l-21 -63l160 69q13 -4 26.5 -7t27.5 -6q14 -2 28.5 -3t29.5 -2q66 -1 124 17.5t102 50.5q43 33 69 77.5t27 95.5t-23 96.5t-67 80.5
q-42 34 -99.5 54.5t-122.5 22.5v0zM980 470v0q10 14 18.5 29.5t14.5 31.5q6 17 8.5 34t2.5 35q-1 51 -27 95.5t-69 77.5q-44 33 -102 51t-124 17q-55 -1 -104.5 -16t-88.5 -40q-40 -25 -68.5 -59.5t-40.5 -74.5q25 -4 49.5 -12t47.5 -18t44.5 -23t40.5 -29q27 -22 48 -47.5
t35 -54.5q14 -28 21 -58.5t7 -61.5q4 0 9 -0.5t10 0.5q15 0 29.5 1t28.5 4q13 2 27 5t27 8l160 -70l-21 63.5t17 111.5v0z" />
    <glyph glyph-name="uniE655" unicode="&#xe655;" 
d="M369 606h1h1l118 -98v111h11.5h11.5q43 0 84 -4.5t78 -12.5t69 -19.5t58 -25.5q14 -6 25.5 -13.5t20.5 -14.5q10 -8 18 -15.5t13 -14.5q6 -8 10.5 -15t6.5 -13q3 -7 4 -13t1 -12q0 -7 -2 -14.5t-5 -15.5q-4 -9 -10.5 -17.5t-16.5 -17.5q-9 -10 -21 -19t-27 -18
q-14 -8 -31 -16.5t-37 -15.5q-2 0 -4 -1l-4 -2l107 -89q15 8 29.5 16t27.5 17t25 19t23 20q15 15 28 32.5t22 37.5q10 19 15 40.5t5 43.5q0 18 -3.5 36t-9.5 34q-7 17 -16 32t-20 29q-17 20 -37.5 38t-45.5 33q-24 15 -51 28t-57 24q-30 10 -62 18t-66 14q-34 5 -70.5 8
t-73.5 3h-11.5h-11.5v123l-216 -179l96 -80v-1v0zM535 30l216 179l-216 179v-115h-11.5h-11.5q-43 0 -84 4.5t-78 12.5t-69 19.5t-58 25.5q-14 7 -25 14t-21 15q-10 7 -17.5 14.5t-13.5 15.5q-6 7 -10 14t-7 13q-3 7 -4 13t-1 12q0 4 0.5 8.5t1.5 8.5q2 4 3.5 8.5t4.5 9.5
q3 7 9 14.5t14 15.5q7 7 17 15t21 15q9 6 18.5 11.5t20.5 10.5t22.5 10t23.5 9l-107 89q-12 -6 -23.5 -12.5t-22.5 -13.5t-21 -14.5t-19 -15.5q-10 -8 -18.5 -17t-16.5 -18t-15 -19t-12 -21q-6 -10 -10.5 -21.5t-7.5 -23.5q-4 -12 -5.5 -24t-1.5 -25v0q0 -19 3.5 -36.5
t10.5 -33.5q6 -16 15 -31.5t20 -28.5q17 -21 38 -39t45 -33t51 -28t57 -23q30 -11 62 -19t66 -14q35 -5 71 -8t73 -3h11.5h11.5v-119v0z" />
    <glyph glyph-name="uniE656" unicode="&#xe656;" 
d="M389 574l-128 128q24 24 52.5 43t60.5 32q32 14 66.5 21t71.5 7t72 -7.5t67 -20.5q32 -14 60.5 -33t52.5 -44q25 -24 44 -52.5t33 -60.5q13 -32 20.5 -67t7.5 -72h155q0 106 -40 199.5t-110 162.5q-69 70 -162.5 110t-199.5 40q-53 0 -102.5 -10.5t-95.5 -29.5t-87 -46.5
t-75 -61.5l-119 118v-356h356v0zM766 197q-25 -24 -53.5 -44t-60.5 -33q-32 -14 -67.5 -21.5t-72.5 -7.5t-72 7.5t-67 20.5q-32 14 -60.5 33t-52.5 44q-25 24 -44 52.5t-33 60.5q-13 32 -20.5 67t-7.5 72h-155q0 -106 40 -199.5t110 -162.5q69 -70 162.5 -110t199.5 -40
q53 0 103.5 10.5t96.5 30.5q46 19 87.5 47t75.5 63l115 -115v348h-347l123 -123v0z" />
    <glyph glyph-name="uniE657" unicode="&#xe657;" 
d="M438 960h-45h-46h-45h-46q-7 -9 -14.5 -18t-14.5 -19q-7 -9 -14.5 -18t-14.5 -18h75h74h75h75q-8 9 -15 18l-14 18q-8 10 -15 19t-15 18v0zM282 202q-21 5 -40 14.5t-36 22.5q-17 12 -31.5 27.5t-25.5 32.5q-10 16 -18 32.5t-13 33.5q-4 18 -6.5 36t-1.5 36q0 22 5 43.5
t13 41.5q9 20 21 38.5t27 33.5q11 12 24 22.5t28 18.5q14 8 29.5 14.5t31.5 10.5q21 6 43 7t44 -1q21 -3 42 -9.5t41 -17.5q28 -14 51 -36t39 -49q17 -27 26.5 -57.5t9.5 -62.5v-11.5t-1 -11.5q0 -6 -1 -11.5t-2 -11.5q-4 -23 -12.5 -45t-21.5 -41q-13 -20 -29.5 -37
t-35.5 -31q3 -13 8.5 -26t12.5 -25t15.5 -23t18.5 -20q14 9 27.5 20t25.5 23q12 11 23 24.5t21 27.5q12 17 21.5 35.5t17.5 37.5q7 20 12 40t7 41l2 16t1 16t-0.5 15.5t-1.5 15.5q-2 38 -13 75t-29 70q-19 34 -44 62.5t-56 50.5q-12 10 -25.5 17.5t-26.5 14.5
q-14 6 -28.5 11.5t-28.5 10.5q7 11 14.5 21.5t14.5 21.5t14.5 21.5t14.5 21.5h-76h-77h-76h-77q8 -11 15 -21.5t15 -21.5q7 -11 14 -21.5t15 -21.5q-22 -7 -43.5 -16t-41.5 -21t-38 -26.5t-34 -31.5q-18 -18 -33 -39.5t-26 -44.5q-12 -23 -20 -48t-12 -50q-5 -26 -5 -52
t3 -52q4 -26 11 -51t18 -48q12 -25 27 -48t34 -43t40.5 -37t45.5 -30q19 -11 40 -19t42 -14q22 -5 44.5 -8t44.5 -3q-8 14 -15 27.5t-13 27.5q-6 15 -11 29.5t-8 29.5q-6 2 -11 3t-10 3v0zM1020 336q-5 36 -18 70t-32 64q-20 30 -45 56t-55 46q-22 15 -45.5 26t-48.5 18
t-50.5 11t-51.5 4q8 -13 15 -27t13 -28q6 -15 10.5 -29.5t8.5 -29.5q23 -5 45 -13.5t41 -21.5q20 -13 37 -29.5t30 -36.5q10 -15 18 -32t13 -34q5 -18 7.5 -36.5t1.5 -36.5q0 -16 -2.5 -32t-7.5 -32q-5 -15 -12 -30t-16 -28q-9 -14 -19.5 -27t-23.5 -23q-12 -11 -26 -20.5
t-29 -16.5q-28 -13 -59 -18.5t-62 -2.5q-30 2 -59.5 12.5t-54.5 28.5q-29 19 -51 47t-35 60t-17 67.5t4 69.5q4 22 13 43t22 40q12 18 28 34.5t35 29.5q-4 13 -9 26t-12 25t-15.5 23t-18.5 21q-20 -14 -39 -30.5t-35 -34.5q-16 -19 -29.5 -40t-23.5 -43q-10 -23 -17 -47.5
t-11 -49.5q-3 -25 -2.5 -50.5t4.5 -49.5q5 -33 16.5 -64t28.5 -60q17 -28 39 -52.5t49 -44.5q27 -21 58.5 -36.5t64.5 -23.5q33 -9 68 -11t69 3q35 5 68 17t64 31q30 18 55.5 42.5t46.5 53.5q19 27 32.5 57.5t21.5 62.5q7 33 8.5 66t-3.5 66v0z" />
    <glyph glyph-name="uniE658" unicode="&#xe658;" 
d="M1018 102q-7 -64 -46.5 -74.5l-39.5 -10.5q24 40 23.5 82l-0.5 42q-15 -26 -27 -43.5t-22 -26.5q-9 -10 -16 -12.5t-12 -0.5v126q12 25 25 50.5t20 39.5q6 14 1.5 12t-28.5 -31q-5 -6 -9.5 -12t-8.5 -12v321q0 74 -28.5 139t-77.5 113q-49 49 -114.5 77t-139.5 28h-34
q-74 0 -139.5 -28t-114.5 -77q-49 -48 -77.5 -113t-28.5 -139v-349q-1 -4 -3 -7.5t-4 -7.5q-33 -69 -48 -134t-15 -66h70v-1h54v1l646 2v-3h54v3h140q10 27 5 69.5l-5 42.5v0zM124 20q-1 2 -1.5 12t-0.5 31v12v12q1 6 1.5 11.5t0.5 10.5v-89v0zM824 144q-24 -46 -36.5 -79
l-12.5 -33q-9 20 2 59.5t24 74.5q12 35 18 54.5t-13 -1.5q-37 -40 -56.5 -107l-19.5 -67q8 41 9 68.5t-1 40.5q-2 14 -5 11t-3 -24q0 -42 -38.5 -80l-38.5 -38q16 30 17 63.5t-3 58.5t-10 36.5t-4 -2.5q2 -13 -6 -40.5t-18 -52.5q-9 -24 -15 -36.5t-1 4.5q16 57 8 72l-8 15
q-4 -55 -42.5 -95.5l-38.5 -40.5q15 34 17.5 70t-0.5 75q-4 39 -10 80.5t-8 87.5q4 -111 -29.5 -185l-33.5 -74q4 17 7.5 53t4.5 63q2 28 -0.5 31.5t-11.5 -45.5q-8 -48 -32.5 -83t-44.5 -52q-21 -17 -28 -14t20 32q11 12 14 31.5t1 36.5q-1 18 -3.5 28t-2.5 4
q0 -14 -31.5 -54l-31.5 -40q0 47 15.5 129.5l15.5 82.5q-10 -3 -25.5 -38.5t-32.5 -73.5q-16 -37 -31 -60t-23 0q-9 23 -4 42t13 32t12.5 19t-3.5 5q-55 -7 -70.5 -83.5l-15.5 -76.5q-1 1 -1 2.5t-1 2.5v87q1 2 1.5 3.5l0.5 1.5l-1 -0.5t-1 -1.5v133l1.5 3l0.5 1l-0.5 0.5
t-1.5 0.5v234q0 67 24 125.5t66 101.5q42 44 98.5 69t120.5 25h28q64 0 120.5 -25t98.5 -69q42 -43 66 -101.5t24 -125.5v-351v0zM54 139q-3 -37 -28.5 -94.5l-25.5 -57.5l54 1q0 1 1.5 94.5t-1.5 56.5v0zM54 -13v0.5v0.5v0v-1v0zM393 415l-22 41q-3 6 -6.5 8.5l-3.5 2.5v1
q7 1 21.5 14.5t14.5 42.5q0 15 -5 27.5t-14 20.5t-21.5 12.5t-27.5 4.5h-98v-34h20v-182h40v81h21q8 0 12.5 -2t7.5 -8l28 -55q6 -10 12.5 -13t18.5 -3h21v34h-4q-5 0 -9 1t-6 6v0zM323 489h-32v67h33q7 0 13 -2t10 -6q4 -5 6.5 -11t2.5 -14t-2.5 -14.5t-6.5 -10.5
q-4 -5 -10 -7t-14 -2v0zM464 556h22v-148h-22v-34h82v34h-22v148h22v34h-82v-34v0zM601 590v-34h20v-182h41v75h39q16 0 28.5 5t21.5 14q10 10 15 23t5 29t-5 28.5t-15 22.5q-9 9 -21.5 14t-28.5 5h-100v0zM730 520q0 -9 -2.5 -15.5t-7.5 -11.5q-4 -5 -10.5 -7.5t-15.5 -2.5
h-32v73h33q8 0 14.5 -2.5t10.5 -7.5q5 -4 7.5 -11t2.5 -15v0z" />
    <glyph glyph-name="uniE659" unicode="&#xe659;" 
d="M526 960l3 -67h-34l3 67h-239l-235 -1024h443v93h90v-93h443l-235 1024h-239v0zM491 802h42l3 -78h-48l3 78v0zM485 632h54l5 -100h-63l4 100v0zM477 441h70l5 -107h-80l5 107v0zM467 121v70l2 51h86l2 -50v-71h-90v0z" />
    <glyph glyph-name="uniE65A" unicode="&#xe65a;" 
d="M955 705q17 -29 30 -60t22 -63q8 -32 12.5 -65.5t4.5 -68.5t-4.5 -68.5t-12.5 -65.5q-9 -32 -22 -63t-30 -60t-37 -55.5t-44 -49.5q-23 -24 -49.5 -44t-55.5 -37t-60 -30t-63 -22q-32 -8 -65.5 -12.5t-68.5 -4.5t-68.5 4.5t-65.5 12.5q-32 9 -63 22t-60 30t-55.5 37
t-49.5 44q-24 23 -44 49.5t-37 55.5t-30 60t-22 63q-8 32 -12.5 65.5t-4.5 68.5t4.5 68.5t12.5 65.5q9 32 22 63t30 60t37 55.5t44 49.5q23 24 49.5 44t55.5 37t60 30t63 22q32 8 65.5 12.5t68.5 4.5t68.5 -4.5t65.5 -12.5q32 -9 63 -22t60 -30q30 -17 56 -37t49 -44
q24 -23 44 -49.5t37 -55.5v0zM905 282q8 20 14.5 40.5t10.5 40.5q5 21 7 42t2 43t-2 43t-7 42q-4 20 -10.5 40.5t-14.5 40.5q-9 19 -19 37.5t-21 35.5t-24 32.5t-27 30.5q-15 14 -30.5 27t-32.5 24t-35.5 21t-37.5 19q-20 8 -40.5 14.5t-40.5 10.5q-21 4 -42 6.5t-43 2.5
t-43 -2.5t-42 -6.5q-20 -4 -40.5 -10.5t-40.5 -14.5q-19 -9 -37.5 -19t-35.5 -21t-32.5 -24t-30.5 -27q-14 -15 -27 -30.5t-24 -32.5t-21 -35.5t-19 -37.5q-8 -20 -14.5 -40.5t-10.5 -40.5q-5 -21 -7 -42t-2 -43t2 -43t7 -42q4 -20 10.5 -40.5t14.5 -40.5q9 -19 19 -37.5
t21 -35.5t24 -32.5t27 -30.5q15 -14 30.5 -27t32.5 -24t35.5 -21t37.5 -19q20 -8 40.5 -14.5t40.5 -10.5q21 -4 42 -6.5t43 -2.5t43 2.5t42 6.5q20 4 40.5 10.5t40.5 14.5q19 9 37.5 19t35.5 21t32.5 24t30.5 27q14 15 27 30.5t24 32.5t21 35.5t19 37.5v0zM402 679
q6 -6 10.5 -13t7.5 -15q3 -7 5 -15t2 -17t-2 -17.5t-5 -15.5q-3 -8 -7.5 -14.5t-10.5 -13.5q-7 -6 -13.5 -10.5t-14.5 -7.5q-7 -3 -15.5 -4.5t-17.5 -1.5q-8 0 -16.5 1.5t-15.5 4.5q-8 3 -15 7.5t-13 10.5q-6 7 -11 13.5t-8 14.5q-3 7 -4.5 15.5t-1.5 17.5t1.5 17t4.5 15
q3 8 8 15t11 13t13 11t15 8q7 3 15.5 4.5t16.5 1.5q9 0 17.5 -1.5t15.5 -4.5q8 -3 14.5 -8t13.5 -11v0zM756 226q1 -4 1.5 -8t0.5 -8t-1.5 -8t-3.5 -8t-4.5 -7.5t-5.5 -5.5q-3 -3 -6.5 -5t-7.5 -3q-4 -2 -8.5 -2.5t-8.5 0.5q-4 0 -8 1t-8 3t-7.5 5t-5.5 6q-3 3 -5 6.5
t-3 8.5q-5 13 -10.5 25t-13.5 23t-17.5 20.5t-20.5 17.5t-23 14.5t-25 10.5q-12 4 -25.5 6t-27.5 2t-27.5 -2t-25.5 -6q-13 -4 -25 -10.5t-23 -14.5t-20.5 -17.5t-17.5 -20.5t-14 -23t-10 -25q-1 -5 -3 -8.5t-5 -6.5q-2 -3 -5.5 -6t-7.5 -5t-8 -3t-8 -1q-4 -1 -8 -0.5
t-8 2.5q-4 1 -8 3t-7 5q-3 2 -5.5 5.5t-4.5 7.5t-3.5 8t-1.5 8t0.5 8t1.5 8q6 20 15 38.5t20 34.5q12 16 26 30.5t31 26.5t35 21.5t37 15.5t39 9t41 3t41 -3t39 -9t37 -15.5t35 -21.5t31 -26.5t26 -30.5q11 -16 20 -34.5t15 -38.5v0zM743 679q6 -6 11 -13t8 -15
q3 -7 4.5 -15t1.5 -17t-1.5 -17.5t-4.5 -15.5q-3 -8 -8 -14.5t-11 -13.5q-6 -6 -13 -10.5t-15 -7.5q-7 -3 -15 -4.5t-17 -1.5t-17.5 1.5t-15.5 4.5q-8 3 -14.5 7.5t-13.5 10.5q-6 7 -10.5 13.5t-7.5 14.5q-4 7 -5.5 15.5t-1.5 17.5t1.5 17t5.5 15q3 8 7.5 15t10.5 13
q7 6 13.5 11t14.5 8q7 3 15.5 4.5t17.5 1.5t17 -1.5t15 -4.5q8 -3 15 -8t13 -11v0z" />
    <glyph glyph-name="uniE65B" unicode="&#xe65b;" 
d="M318 364l-146 344l-146 -344q0 -30 11.5 -57t31.5 -46q19 -20 46 -31.5t57 -11.5q30 -2 56.5 9t46.5 31t31.5 47t11.5 59v0zM88 364l84 194l84 -194h-168v0zM852 708l-150 -344q0 -30 11.5 -57t31.5 -46q20 -20 46.5 -31.5t56.5 -11.5q31 0 57.5 11.5t46.5 31.5
q20 19 31.5 46t11.5 57l-143 344v0zM768 364l84 197l84 -197h-168v0zM567 130v585h366v73h-366q8 7 15 15t11 18q5 10 7.5 21t2.5 23q0 20 -7.5 37.5t-20.5 30.5t-30 20t-37 7t-37.5 -7.5t-30.5 -20.5q-12 -13 -19.5 -30.5t-7.5 -36.5q0 -11 3 -22t7 -21q5 -10 12 -18.5
t15 -15.5v0h-359v-73h355v-585q0 -25 -9.5 -47t-25.5 -38q-17 -17 -39 -26.5t-47 -9.5h-124v-73h611v73h-124q-25 0 -47 9.5t-38 26.5q-17 16 -26.5 38t-9.5 47v0z" />
    <glyph glyph-name="uniE65C" unicode="&#xe65c;" 
d="M1007 99l-251 252q13 22 23 45.5t17 48.5t10.5 51.5t3.5 54.5q1 83 -30.5 157t-85.5 129q-55 55 -128 87t-157 33h-1.5h-1.5q-83 0 -156 -31.5t-128 -86.5q-55 -54 -87 -127t-32 -156q-1 -84 30.5 -157.5t85.5 -129.5q55 -55 128 -87t157 -33h1.5h1.5q27 0 54 4t53 11
q25 7 49 17t47 23l251 -251q7 -7 16 -10.5t18 -3.5t18 3.5t16 10.5l78 79q7 7 10.5 15.5t3.5 17.5t-3.5 18t-10.5 16v0zM405 252q-63 1 -117.5 25t-94.5 65q-41 41 -64.5 96t-22.5 117q0 62 24 116.5t65 94.5q40 41 95 64.5t116 23.5h2q31 0 59.5 -6t55.5 -18
q27 -11 51.5 -27.5t45.5 -38.5q22 -21 38 -45.5t27 -52.5q11 -27 16.5 -56t5.5 -59t-6 -59t-17 -55q-11 -27 -27.5 -51.5t-38.5 -45.5q-21 -21 -45.5 -37.5t-51.5 -27.5t-56 -17t-58 -6h-2v0z" />
    <glyph glyph-name="uniE65D" unicode="&#xe65d;" 
d="M1024 392v117l-141 46l-33 80l64 136l-83 82l-132 -67l-81 33l-50 141h-117l-5 -16l-41 -125l-80 -34l-136 64l-82 -82l8 -15l59 -117l-33 -81l-141 -50v-117l141 -46l34 -80l-64 -136l82 -82l132 67l81 -33l50 -141h117l46 141l80 33l136 -64l82 83l-8 15l-59 117l33 81
l141 50v0zM512 285q-34 0 -63.5 12.5t-51.5 35.5q-23 22 -35.5 51.5t-12.5 63.5t12.5 63.5t35.5 51.5q22 23 51.5 35.5t63.5 12.5t63.5 -12.5t51.5 -35.5q23 -22 35.5 -51.5t12.5 -63.5t-12.5 -63.5t-35.5 -51.5q-22 -23 -51.5 -35.5t-63.5 -12.5v0z" />
    <glyph glyph-name="uniE65E" unicode="&#xe65e;" 
d="M686 302q0 -61 -23.5 -115t-63.5 -94t-94 -63.5t-115 -23.5t-115 23.5t-94 63.5t-63.5 94t-23.5 115t23.5 115t63.5 94t94 63.5t115 23.5t115 -23.5t94 -63.5t63.5 -94t23.5 -115v0zM807 882q-42 0 -79 -6t-66 -17q-29 -10 -48 -24.5t-24 -30.5v-157q3 -5 14 -17t35 -24
q25 -13 64.5 -22.5t99.5 -9.5q63 0 104.5 10.5t66.5 24.5q25 13 36.5 25.5t13.5 16.5v153q-5 16 -24 30.5t-48 24.5q-28 11 -65.5 17t-79.5 6v0zM807 748q-39 0 -70 5t-53 12t-35 15t-16 13q3 5 16 13t35 15t53 12t70 5q40 0 70.5 -5t52.5 -12t35 -15t17 -13q-4 -5 -17 -13
t-35 -15t-52.5 -12t-70.5 -5v0zM541 728q0 13 -5.5 25t-14.5 21q-10 9 -23 14.5t-27 5.5h-37q-15 0 -27.5 -5.5t-22.5 -14.5t-15.5 -21t-5.5 -25q0 -14 5.5 -26t15.5 -20q10 -9 22.5 -14.5t27.5 -5.5h37q14 0 27 5.5t23 14.5q9 8 14.5 20t5.5 26v0zM434 701q-7 0 -12.5 2.5
t-9.5 5.5q-5 4 -7.5 8.5t-2.5 10.5q0 5 2.5 10t7.5 9q4 3 9.5 5.5t12.5 2.5h37q6 0 12 -2.5t10 -5.5q4 -4 6.5 -9t2.5 -10q0 -6 -2.5 -10.5t-6.5 -8.5q-4 -3 -10 -5.5t-12 -2.5h-37v0zM397 747q9 9 13.5 21.5t3.5 25.5q0 13 -6 26t-16 23l-27 26q-10 10 -23 15t-26 6
q-13 0 -25 -4.5t-22 -14.5q-9 -10 -13.5 -22.5t-3.5 -25.5q0 -13 5.5 -25.5t16.5 -22.5l26 -26q11 -10 23.5 -15.5t25.5 -5.5t25.5 4.5t22.5 14.5v0zM301 803q-5 4 -7.5 9.5t-2.5 11.5q-1 5 0.5 10.5t5.5 9.5t9 5.5t11 1.5q5 -1 10.5 -3.5t10.5 -6.5l27 -26q4 -5 7 -10.5
t3 -10.5q1 -6 -1 -11t-5 -9q-4 -4 -9.5 -5.5t-10.5 -1.5q-6 0 -11.5 2.5t-9.5 7.5l-27 26v0zM282 810q0 13 -5.5 25t-15.5 21t-22.5 14t-27.5 5l-37 -1q-15 0 -27.5 -5.5t-22.5 -14.5q-9 -9 -14.5 -21t-5.5 -25q1 -14 6.5 -26t14.5 -20q10 -9 23 -14t27 -5h38q14 1 27 6
t22 14t14.5 21t5.5 26v0zM175 782q-7 0 -12.5 2t-9.5 6q-5 3 -7.5 8t-2.5 10q0 6 2.5 10.5t6.5 8.5t10 6t12 2l38 1q6 0 11.5 -2t10.5 -6q4 -3 6.5 -8t2.5 -11q0 -5 -2.5 -10t-6.5 -8q-4 -4 -9.5 -6t-12.5 -3h-37v0zM122 804q-11 7 -24 8.5t-26 -2.5q-12 -3 -23.5 -11.5
t-18.5 -20.5l-19 -32q-8 -13 -10 -26.5t0 -26.5q3 -12 10.5 -23t19.5 -18q11 -7 24 -8.5t26 1.5q13 4 24 12.5t18 20.5l19 32q8 12 10 26t0 26q-3 13 -10.5 24t-19.5 18v0zM90 698q-4 -5 -8.5 -9t-9.5 -6q-6 -1 -11.5 -1t-9.5 3q-5 3 -8 7.5t-4 10.5q0 5 1 11t4 12l19 32
q4 5 8.5 9t9.5 5q6 2 11.5 1.5t9.5 -2.5q5 -3 8 -7.5t4 -10.5q1 -5 -0.5 -11t-4.5 -12l-19 -32v0zM31 660q-9 -9 -13.5 -21.5t-4.5 -25.5t5.5 -25.5t16.5 -23.5l26 -26q10 -10 23 -15.5t26 -5.5q13 -1 25 3.5t22 14.5q10 9 14.5 21.5t3.5 25.5q0 13 -5.5 26t-15.5 23l-27 26
q-10 11 -22.5 16t-25.5 6q-13 0 -25.5 -4.5t-22.5 -14.5v0zM126 603q5 -4 7.5 -9.5t2.5 -11.5q1 -5 -1 -10.5t-6 -8.5q-3 -4 -8.5 -6t-10.5 -1q-6 0 -11.5 2.5t-9.5 7.5l-27 26q-4 5 -6.5 10.5t-3.5 10.5q0 6 1.5 11t5.5 9t9 5.5t11 1.5q5 -1 10.5 -3.5t10.5 -6.5l26 -27v0z
M165 500q-6 7 -7 15.5t5 13.5q5 6 13.5 5.5t15.5 -6.5l9 -10l20 20l-10 10q-7 7 -16.5 10.5t-18.5 3.5t-18 -3t-16 -10q-6 -7 -9 -16t-3 -18q1 -10 5 -19t11 -16l10 -9l19 20l-10 9v0zM578 709q-9 0 -15.5 5.5t-6.5 13.5t6.5 13.5t15.5 5.5h14v28h-14q-10 0 -19 -4t-16 -10
t-11 -14.5t-4 -18.5t4 -18.5t11 -14.5q7 -7 16 -10.5t19 -3.5h14v28h-14v0z" />
    <glyph glyph-name="uniE65F" unicode="&#xe65f;" 
d="M135 832q244 0 310.5 64l66.5 64l66.5 -64t310.5 -64v-523q0 -156 -188.5 -264.5l-188.5 -108.5l-188.5 108.5t-188.5 264.5v523v0z" />
    <glyph glyph-name="uniE660" unicode="&#xe660;" 
d="M244 116l249 113l352 352l-62 62l-212 -212l-37 37l212 212l-38 39l-353 -353l-111 -250v0zM420 353l54 54l8 -52l52 -7l-55 -55l-108 -49l49 109v0zM1024 760l-137 137l-117 -116l137 -138l117 117v0zM749 344h194v-273h-871v273h208v72h-280v-417h1015v417h-266v-72v0z
" />
    </font>
</defs>
</svg>
